<?xml version="1.0" encoding="UTF-8" standalone="no"?>
<!DOCTYPE svg PUBLIC "-//W3C//DTD SVG 1.1//EN"
 "http://www.w3.org/Graphics/SVG/1.1/DTD/svg11.dtd">
<!-- Generated by graphviz version 2.30.1 (20140110.0959)
 -->
<!-- Title: controllers_diagram Pages: 1 -->
<svg width="1470pt" height="1371pt"
 viewBox="0.00 0.00 1470.00 1371.06" xmlns="http://www.w3.org/2000/svg" xmlns:xlink="http://www.w3.org/1999/xlink">
<g id="graph0" class="graph" transform="scale(1 1) rotate(0) translate(4 1367.06)">
<title>controllers_diagram</title>
<polygon fill="white" stroke="white" points="-4,5 -4,-1367.06 1467,-1367.06 1467,5 -4,5"/>
<!-- _diagram_info -->
<g id="node1" class="node"><title>_diagram_info</title>
<text text-anchor="start" x="1256" y="-1311.6" font-family="Times,serif" font-size="13.00">Controllers diagram</text>
<text text-anchor="start" x="1256" y="-1297.6" font-family="Times,serif" font-size="13.00">Date: Apr 16 2014 &#45; 10:18</text>
<text text-anchor="start" x="1256" y="-1283.6" font-family="Times,serif" font-size="13.00">Migration version: 20140403190739</text>
<text text-anchor="start" x="1256" y="-1269.6" font-family="Times,serif" font-size="13.00">Generated by RailRoady 1.1.1</text>
<text text-anchor="start" x="1256" y="-1255.6" font-family="Times,serif" font-size="13.00">http://railroady.prestonlee.com</text>
</g>
<!-- ServiceCodesController -->
<g id="node2" class="node"><title>ServiceCodesController</title>
<path fill="none" stroke="black" d="M12,-683.715C12,-683.715 134,-683.715 134,-683.715 140,-683.715 146,-689.715 146,-695.715 146,-695.715 146,-854.715 146,-854.715 146,-860.715 140,-866.715 134,-866.715 134,-866.715 12,-866.715 12,-866.715 6,-866.715 -1.13687e-13,-860.715 -1.13687e-13,-854.715 -1.13687e-13,-854.715 -1.13687e-13,-695.715 -1.13687e-13,-695.715 -1.13687e-13,-689.715 6,-683.715 12,-683.715"/>
<text text-anchor="middle" x="73" y="-851.515" font-family="Times,serif" font-size="14.00">ServiceCodesController</text>
<polyline fill="none" stroke="black" points="-1.13687e-13,-843.715 146,-843.715 "/>
<text text-anchor="start" x="8" y="-828.515" font-family="Times,serif" font-size="14.00">create</text>
<text text-anchor="start" x="8" y="-813.515" font-family="Times,serif" font-size="14.00">destroy</text>
<text text-anchor="start" x="8" y="-798.515" font-family="Times,serif" font-size="14.00">edit</text>
<text text-anchor="start" x="8" y="-783.515" font-family="Times,serif" font-size="14.00">index</text>
<text text-anchor="start" x="8" y="-768.515" font-family="Times,serif" font-size="14.00">new</text>
<text text-anchor="start" x="8" y="-753.515" font-family="Times,serif" font-size="14.00">show</text>
<text text-anchor="start" x="8" y="-738.515" font-family="Times,serif" font-size="14.00">update</text>
<polyline fill="none" stroke="black" points="-1.13687e-13,-730.715 146,-730.715 "/>
<polyline fill="none" stroke="black" points="-1.13687e-13,-706.715 146,-706.715 "/>
<text text-anchor="start" x="8" y="-691.515" font-family="Times,serif" font-size="14.00">_layout</text>
</g>
<!-- PrintVolumesController -->
<g id="node3" class="node"><title>PrintVolumesController</title>
<path fill="none" stroke="black" d="M1027.3,-881.488C1027.3,-881.488 1151.3,-881.488 1151.3,-881.488 1157.3,-881.488 1163.3,-887.488 1163.3,-893.488 1163.3,-893.488 1163.3,-1052.49 1163.3,-1052.49 1163.3,-1058.49 1157.3,-1064.49 1151.3,-1064.49 1151.3,-1064.49 1027.3,-1064.49 1027.3,-1064.49 1021.3,-1064.49 1015.3,-1058.49 1015.3,-1052.49 1015.3,-1052.49 1015.3,-893.488 1015.3,-893.488 1015.3,-887.488 1021.3,-881.488 1027.3,-881.488"/>
<text text-anchor="middle" x="1089.3" y="-1049.29" font-family="Times,serif" font-size="14.00">PrintVolumesController</text>
<polyline fill="none" stroke="black" points="1015.3,-1041.49 1163.3,-1041.49 "/>
<text text-anchor="start" x="1023.3" y="-1026.29" font-family="Times,serif" font-size="14.00">create</text>
<text text-anchor="start" x="1023.3" y="-1011.29" font-family="Times,serif" font-size="14.00">destroy</text>
<text text-anchor="start" x="1023.3" y="-996.288" font-family="Times,serif" font-size="14.00">edit</text>
<text text-anchor="start" x="1023.3" y="-981.288" font-family="Times,serif" font-size="14.00">index</text>
<text text-anchor="start" x="1023.3" y="-966.288" font-family="Times,serif" font-size="14.00">new</text>
<text text-anchor="start" x="1023.3" y="-951.288" font-family="Times,serif" font-size="14.00">show</text>
<text text-anchor="start" x="1023.3" y="-936.288" font-family="Times,serif" font-size="14.00">update</text>
<polyline fill="none" stroke="black" points="1015.3,-928.488 1163.3,-928.488 "/>
<polyline fill="none" stroke="black" points="1015.3,-904.488 1163.3,-904.488 "/>
<text text-anchor="start" x="1023.3" y="-889.288" font-family="Times,serif" font-size="14.00">_layout</text>
</g>
<!-- StatusesController -->
<g id="node4" class="node"><title>StatusesController</title>
<path fill="none" stroke="black" d="M494.465,-0.5C494.465,-0.5 586.465,-0.5 586.465,-0.5 592.465,-0.5 598.465,-6.5 598.465,-12.5 598.465,-12.5 598.465,-171.5 598.465,-171.5 598.465,-177.5 592.465,-183.5 586.465,-183.5 586.465,-183.5 494.465,-183.5 494.465,-183.5 488.465,-183.5 482.465,-177.5 482.465,-171.5 482.465,-171.5 482.465,-12.5 482.465,-12.5 482.465,-6.5 488.465,-0.5 494.465,-0.5"/>
<text text-anchor="middle" x="540.465" y="-168.3" font-family="Times,serif" font-size="14.00">StatusesController</text>
<polyline fill="none" stroke="black" points="482.465,-160.5 598.465,-160.5 "/>
<text text-anchor="start" x="490.465" y="-145.3" font-family="Times,serif" font-size="14.00">create</text>
<text text-anchor="start" x="490.465" y="-130.3" font-family="Times,serif" font-size="14.00">destroy</text>
<text text-anchor="start" x="490.465" y="-115.3" font-family="Times,serif" font-size="14.00">edit</text>
<text text-anchor="start" x="490.465" y="-100.3" font-family="Times,serif" font-size="14.00">index</text>
<text text-anchor="start" x="490.465" y="-85.3" font-family="Times,serif" font-size="14.00">new</text>
<text text-anchor="start" x="490.465" y="-70.3" font-family="Times,serif" font-size="14.00">show</text>
<text text-anchor="start" x="490.465" y="-55.3" font-family="Times,serif" font-size="14.00">update</text>
<polyline fill="none" stroke="black" points="482.465,-47.5 598.465,-47.5 "/>
<polyline fill="none" stroke="black" points="482.465,-23.5 598.465,-23.5 "/>
<text text-anchor="start" x="490.465" y="-8.3" font-family="Times,serif" font-size="14.00">_layout</text>
</g>
<!-- MaintCountersController -->
<g id="node5" class="node"><title>MaintCountersController</title>
<path fill="none" stroke="black" d="M288.311,-1071.13C288.311,-1071.13 418.311,-1071.13 418.311,-1071.13 424.311,-1071.13 430.311,-1077.13 430.311,-1083.13 430.311,-1083.13 430.311,-1242.13 430.311,-1242.13 430.311,-1248.13 424.311,-1254.13 418.311,-1254.13 418.311,-1254.13 288.311,-1254.13 288.311,-1254.13 282.311,-1254.13 276.311,-1248.13 276.311,-1242.13 276.311,-1242.13 276.311,-1083.13 276.311,-1083.13 276.311,-1077.13 282.311,-1071.13 288.311,-1071.13"/>
<text text-anchor="middle" x="353.311" y="-1238.93" font-family="Times,serif" font-size="14.00">MaintCountersController</text>
<polyline fill="none" stroke="black" points="276.311,-1231.13 430.311,-1231.13 "/>
<text text-anchor="start" x="284.311" y="-1215.93" font-family="Times,serif" font-size="14.00">create</text>
<text text-anchor="start" x="284.311" y="-1200.93" font-family="Times,serif" font-size="14.00">destroy</text>
<text text-anchor="start" x="284.311" y="-1185.93" font-family="Times,serif" font-size="14.00">edit</text>
<text text-anchor="start" x="284.311" y="-1170.93" font-family="Times,serif" font-size="14.00">index</text>
<text text-anchor="start" x="284.311" y="-1155.93" font-family="Times,serif" font-size="14.00">new</text>
<text text-anchor="start" x="284.311" y="-1140.93" font-family="Times,serif" font-size="14.00">show</text>
<text text-anchor="start" x="284.311" y="-1125.93" font-family="Times,serif" font-size="14.00">update</text>
<polyline fill="none" stroke="black" points="276.311,-1118.13 430.311,-1118.13 "/>
<polyline fill="none" stroke="black" points="276.311,-1094.13 430.311,-1094.13 "/>
<text text-anchor="start" x="284.311" y="-1078.93" font-family="Times,serif" font-size="14.00">_layout</text>
</g>
<!-- NotifyControlsController -->
<g id="node6" class="node"><title>NotifyControlsController</title>
<path fill="none" stroke="black" d="M700.774,-1063.3C700.774,-1063.3 830.774,-1063.3 830.774,-1063.3 836.774,-1063.3 842.774,-1069.3 842.774,-1075.3 842.774,-1075.3 842.774,-1264.3 842.774,-1264.3 842.774,-1270.3 836.774,-1276.3 830.774,-1276.3 830.774,-1276.3 700.774,-1276.3 700.774,-1276.3 694.774,-1276.3 688.774,-1270.3 688.774,-1264.3 688.774,-1264.3 688.774,-1075.3 688.774,-1075.3 688.774,-1069.3 694.774,-1063.3 700.774,-1063.3"/>
<text text-anchor="middle" x="765.774" y="-1261.1" font-family="Times,serif" font-size="14.00">NotifyControlsController</text>
<polyline fill="none" stroke="black" points="688.774,-1253.3 842.774,-1253.3 "/>
<text text-anchor="start" x="696.774" y="-1238.1" font-family="Times,serif" font-size="14.00">batch_edit</text>
<text text-anchor="start" x="696.774" y="-1223.1" font-family="Times,serif" font-size="14.00">batch_update</text>
<text text-anchor="start" x="696.774" y="-1208.1" font-family="Times,serif" font-size="14.00">create</text>
<text text-anchor="start" x="696.774" y="-1193.1" font-family="Times,serif" font-size="14.00">destroy</text>
<text text-anchor="start" x="696.774" y="-1178.1" font-family="Times,serif" font-size="14.00">edit</text>
<text text-anchor="start" x="696.774" y="-1163.1" font-family="Times,serif" font-size="14.00">index</text>
<text text-anchor="start" x="696.774" y="-1148.1" font-family="Times,serif" font-size="14.00">new</text>
<text text-anchor="start" x="696.774" y="-1133.1" font-family="Times,serif" font-size="14.00">show</text>
<text text-anchor="start" x="696.774" y="-1118.1" font-family="Times,serif" font-size="14.00">update</text>
<polyline fill="none" stroke="black" points="688.774,-1110.3 842.774,-1110.3 "/>
<polyline fill="none" stroke="black" points="688.774,-1086.3 842.774,-1086.3 "/>
<text text-anchor="start" x="696.774" y="-1071.1" font-family="Times,serif" font-size="14.00">_layout</text>
</g>
<!-- ApplicationController -->
<g id="node7" class="node"><title>ApplicationController</title>
<path fill="none" stroke="black" d="M587.1,-653.896C587.1,-653.896 754.1,-653.896 754.1,-653.896 760.1,-653.896 766.1,-659.896 766.1,-665.896 766.1,-665.896 766.1,-734.896 766.1,-734.896 766.1,-740.896 760.1,-746.896 754.1,-746.896 754.1,-746.896 587.1,-746.896 587.1,-746.896 581.1,-746.896 575.1,-740.896 575.1,-734.896 575.1,-734.896 575.1,-665.896 575.1,-665.896 575.1,-659.896 581.1,-653.896 587.1,-653.896"/>
<text text-anchor="middle" x="670.6" y="-731.696" font-family="Times,serif" font-size="14.00">ApplicationController</text>
<polyline fill="none" stroke="black" points="575.1,-723.896 766.1,-723.896 "/>
<text text-anchor="start" x="583.1" y="-708.696" font-family="Times,serif" font-size="14.00">_one_time_conditions_valid_8?</text>
<polyline fill="none" stroke="black" points="575.1,-700.896 766.1,-700.896 "/>
<polyline fill="none" stroke="black" points="575.1,-676.896 766.1,-676.896 "/>
<text text-anchor="start" x="583.1" y="-661.696" font-family="Times,serif" font-size="14.00">_layout</text>
</g>
<!-- ApplicationController&#45;&gt;ServiceCodesController -->
<g id="edge1" class="edge"><title>ApplicationController&#45;&gt;ServiceCodesController</title>
<path fill="none" stroke="black" d="M574.917,-712.376C455.553,-727.32 254.073,-752.545 146.262,-766.042"/>
</g>
<!-- ApplicationController&#45;&gt;PrintVolumesController -->
<g id="edge2" class="edge"><title>ApplicationController&#45;&gt;PrintVolumesController</title>
<path fill="none" stroke="black" d="M742.103,-746.947C818.246,-796.519 938.185,-874.604 1015.28,-924.795"/>
</g>
<!-- ApplicationController&#45;&gt;StatusesController -->
<g id="edge3" class="edge"><title>ApplicationController&#45;&gt;StatusesController</title>
<path fill="none" stroke="black" d="M660.605,-653.667C639.119,-553.219 588.206,-315.194 560.044,-183.533"/>
</g>
<!-- ApplicationController&#45;&gt;MaintCountersController -->
<g id="edge4" class="edge"><title>ApplicationController&#45;&gt;MaintCountersController</title>
<path fill="none" stroke="black" d="M638.431,-747.262C586.519,-822.888 483.338,-973.205 416.376,-1070.76"/>
</g>
<!-- ApplicationController&#45;&gt;NotifyControlsController -->
<g id="edge5" class="edge"><title>ApplicationController&#45;&gt;NotifyControlsController</title>
<path fill="none" stroke="black" d="M680.074,-747.121C694.908,-820.283 724.002,-963.776 744.149,-1063.14"/>
</g>
<!-- ReportController -->
<g id="node8" class="node"><title>ReportController</title>
<path fill="none" stroke="black" d="M109.14,-205.077C109.14,-205.077 222.14,-205.077 222.14,-205.077 228.14,-205.077 234.14,-211.077 234.14,-217.077 234.14,-217.077 234.14,-451.077 234.14,-451.077 234.14,-457.077 228.14,-463.077 222.14,-463.077 222.14,-463.077 109.14,-463.077 109.14,-463.077 103.14,-463.077 97.1401,-457.077 97.1401,-451.077 97.1401,-451.077 97.1401,-217.077 97.1401,-217.077 97.1401,-211.077 103.14,-205.077 109.14,-205.077"/>
<text text-anchor="middle" x="165.64" y="-447.877" font-family="Times,serif" font-size="14.00">ReportController</text>
<polyline fill="none" stroke="black" points="97.1401,-440.077 234.14,-440.077 "/>
<text text-anchor="start" x="105.14" y="-424.877" font-family="Times,serif" font-size="14.00">alerts_graph</text>
<text text-anchor="start" x="105.14" y="-409.877" font-family="Times,serif" font-size="14.00">device_volume_graph</text>
<text text-anchor="start" x="105.14" y="-394.877" font-family="Times,serif" font-size="14.00">drum_dev_age</text>
<text text-anchor="start" x="105.14" y="-379.877" font-family="Times,serif" font-size="14.00">frequency</text>
<text text-anchor="start" x="105.14" y="-364.877" font-family="Times,serif" font-size="14.00">full_cfs_history</text>
<text text-anchor="start" x="105.14" y="-349.877" font-family="Times,serif" font-size="14.00">full_jam_history</text>
<text text-anchor="start" x="105.14" y="-334.877" font-family="Times,serif" font-size="14.00">full_maint_history</text>
<text text-anchor="start" x="105.14" y="-319.877" font-family="Times,serif" font-size="14.00">index</text>
<text text-anchor="start" x="105.14" y="-304.877" font-family="Times,serif" font-size="14.00">jam_code_stats</text>
<text text-anchor="start" x="105.14" y="-289.877" font-family="Times,serif" font-size="14.00">jam_history</text>
<text text-anchor="start" x="105.14" y="-274.877" font-family="Times,serif" font-size="14.00">toner_history</text>
<text text-anchor="start" x="105.14" y="-259.877" font-family="Times,serif" font-size="14.00">volume</text>
<polyline fill="none" stroke="black" points="97.1401,-252.077 234.14,-252.077 "/>
<polyline fill="none" stroke="black" points="97.1401,-228.077 234.14,-228.077 "/>
<text text-anchor="start" x="105.14" y="-212.877" font-family="Times,serif" font-size="14.00">_layout</text>
</g>
<!-- ApplicationController&#45;&gt;ReportController -->
<g id="edge6" class="edge"><title>ApplicationController&#45;&gt;ReportController</title>
<path fill="none" stroke="black" d="M606.391,-653.816C510.895,-584.54 332.208,-454.913 234.236,-383.84"/>
</g>
<!-- TonerCodesController -->
<g id="node9" class="node"><title>TonerCodesController</title>
<path fill="none" stroke="black" d="M1196.51,-459.978C1196.51,-459.978 1310.51,-459.978 1310.51,-459.978 1316.51,-459.978 1322.51,-465.978 1322.51,-471.978 1322.51,-471.978 1322.51,-630.978 1322.51,-630.978 1322.51,-636.978 1316.51,-642.978 1310.51,-642.978 1310.51,-642.978 1196.51,-642.978 1196.51,-642.978 1190.51,-642.978 1184.51,-636.978 1184.51,-630.978 1184.51,-630.978 1184.51,-471.978 1184.51,-471.978 1184.51,-465.978 1190.51,-459.978 1196.51,-459.978"/>
<text text-anchor="middle" x="1253.51" y="-627.778" font-family="Times,serif" font-size="14.00">TonerCodesController</text>
<polyline fill="none" stroke="black" points="1184.51,-619.978 1322.51,-619.978 "/>
<text text-anchor="start" x="1192.51" y="-604.778" font-family="Times,serif" font-size="14.00">create</text>
<text text-anchor="start" x="1192.51" y="-589.778" font-family="Times,serif" font-size="14.00">destroy</text>
<text text-anchor="start" x="1192.51" y="-574.778" font-family="Times,serif" font-size="14.00">edit</text>
<text text-anchor="start" x="1192.51" y="-559.778" font-family="Times,serif" font-size="14.00">index</text>
<text text-anchor="start" x="1192.51" y="-544.778" font-family="Times,serif" font-size="14.00">new</text>
<text text-anchor="start" x="1192.51" y="-529.778" font-family="Times,serif" font-size="14.00">show</text>
<text text-anchor="start" x="1192.51" y="-514.778" font-family="Times,serif" font-size="14.00">update</text>
<polyline fill="none" stroke="black" points="1184.51,-506.978 1322.51,-506.978 "/>
<polyline fill="none" stroke="black" points="1184.51,-482.978 1322.51,-482.978 "/>
<text text-anchor="start" x="1192.51" y="-467.778" font-family="Times,serif" font-size="14.00">_layout</text>
</g>
<!-- ApplicationController&#45;&gt;TonerCodesController -->
<g id="edge7" class="edge"><title>ApplicationController&#45;&gt;TonerCodesController</title>
<path fill="none" stroke="black" d="M766.204,-675.972C883.771,-645.937 1080.47,-595.685 1184.37,-569.143"/>
</g>
<!-- MaintCodesController -->
<g id="node10" class="node"><title>MaintCodesController</title>
<path fill="none" stroke="black" d="M147.246,-491.715C147.246,-491.715 262.246,-491.715 262.246,-491.715 268.246,-491.715 274.246,-497.715 274.246,-503.715 274.246,-503.715 274.246,-662.715 274.246,-662.715 274.246,-668.715 268.246,-674.715 262.246,-674.715 262.246,-674.715 147.246,-674.715 147.246,-674.715 141.246,-674.715 135.246,-668.715 135.246,-662.715 135.246,-662.715 135.246,-503.715 135.246,-503.715 135.246,-497.715 141.246,-491.715 147.246,-491.715"/>
<text text-anchor="middle" x="204.746" y="-659.515" font-family="Times,serif" font-size="14.00">MaintCodesController</text>
<polyline fill="none" stroke="black" points="135.246,-651.715 274.246,-651.715 "/>
<text text-anchor="start" x="143.246" y="-636.515" font-family="Times,serif" font-size="14.00">create</text>
<text text-anchor="start" x="143.246" y="-621.515" font-family="Times,serif" font-size="14.00">destroy</text>
<text text-anchor="start" x="143.246" y="-606.515" font-family="Times,serif" font-size="14.00">edit</text>
<text text-anchor="start" x="143.246" y="-591.515" font-family="Times,serif" font-size="14.00">index</text>
<text text-anchor="start" x="143.246" y="-576.515" font-family="Times,serif" font-size="14.00">new</text>
<text text-anchor="start" x="143.246" y="-561.515" font-family="Times,serif" font-size="14.00">show</text>
<text text-anchor="start" x="143.246" y="-546.515" font-family="Times,serif" font-size="14.00">update</text>
<polyline fill="none" stroke="black" points="135.246,-538.715 274.246,-538.715 "/>
<polyline fill="none" stroke="black" points="135.246,-514.715 274.246,-514.715 "/>
<text text-anchor="start" x="143.246" y="-499.515" font-family="Times,serif" font-size="14.00">_layout</text>
</g>
<!-- ApplicationController&#45;&gt;MaintCodesController -->
<g id="edge8" class="edge"><title>ApplicationController&#45;&gt;MaintCodesController</title>
<path fill="none" stroke="black" d="M574.922,-676.329C485.587,-653.858 354.382,-620.854 274.539,-600.77"/>
</g>
<!-- CountersController -->
<g id="node11" class="node"><title>CountersController</title>
<path fill="none" stroke="black" d="M772.866,-29.4047C772.866,-29.4047 869.866,-29.4047 869.866,-29.4047 875.866,-29.4047 881.866,-35.4047 881.866,-41.4047 881.866,-41.4047 881.866,-215.405 881.866,-215.405 881.866,-221.405 875.866,-227.405 869.866,-227.405 869.866,-227.405 772.866,-227.405 772.866,-227.405 766.866,-227.405 760.866,-221.405 760.866,-215.405 760.866,-215.405 760.866,-41.4047 760.866,-41.4047 760.866,-35.4047 766.866,-29.4047 772.866,-29.4047"/>
<text text-anchor="middle" x="821.366" y="-212.205" font-family="Times,serif" font-size="14.00">CountersController</text>
<polyline fill="none" stroke="black" points="760.866,-204.405 881.866,-204.405 "/>
<text text-anchor="start" x="768.866" y="-189.205" font-family="Times,serif" font-size="14.00">create</text>
<text text-anchor="start" x="768.866" y="-174.205" font-family="Times,serif" font-size="14.00">destroy</text>
<text text-anchor="start" x="768.866" y="-159.205" font-family="Times,serif" font-size="14.00">detail</text>
<text text-anchor="start" x="768.866" y="-144.205" font-family="Times,serif" font-size="14.00">edit</text>
<text text-anchor="start" x="768.866" y="-129.205" font-family="Times,serif" font-size="14.00">index</text>
<text text-anchor="start" x="768.866" y="-114.205" font-family="Times,serif" font-size="14.00">new</text>
<text text-anchor="start" x="768.866" y="-99.2047" font-family="Times,serif" font-size="14.00">show</text>
<text text-anchor="start" x="768.866" y="-84.2047" font-family="Times,serif" font-size="14.00">update</text>
<polyline fill="none" stroke="black" points="760.866,-76.4047 881.866,-76.4047 "/>
<polyline fill="none" stroke="black" points="760.866,-52.4047 881.866,-52.4047 "/>
<text text-anchor="start" x="768.866" y="-37.2047" font-family="Times,serif" font-size="14.00">_layout</text>
</g>
<!-- ApplicationController&#45;&gt;CountersController -->
<g id="edge9" class="edge"><title>ApplicationController&#45;&gt;CountersController</title>
<path fill="none" stroke="black" d="M682.938,-653.588C707.377,-560.87 762.409,-352.085 795.248,-227.495"/>
</g>
<!-- ClientsController -->
<g id="node12" class="node"><title>ClientsController</title>
<path fill="none" stroke="black" d="M393.773,-200.671C393.773,-200.671 479.773,-200.671 479.773,-200.671 485.773,-200.671 491.773,-206.671 491.773,-212.671 491.773,-212.671 491.773,-371.671 491.773,-371.671 491.773,-377.671 485.773,-383.671 479.773,-383.671 479.773,-383.671 393.773,-383.671 393.773,-383.671 387.773,-383.671 381.773,-377.671 381.773,-371.671 381.773,-371.671 381.773,-212.671 381.773,-212.671 381.773,-206.671 387.773,-200.671 393.773,-200.671"/>
<text text-anchor="middle" x="436.773" y="-368.471" font-family="Times,serif" font-size="14.00">ClientsController</text>
<polyline fill="none" stroke="black" points="381.773,-360.671 491.773,-360.671 "/>
<text text-anchor="start" x="389.773" y="-345.471" font-family="Times,serif" font-size="14.00">create</text>
<text text-anchor="start" x="389.773" y="-330.471" font-family="Times,serif" font-size="14.00">destroy</text>
<text text-anchor="start" x="389.773" y="-315.471" font-family="Times,serif" font-size="14.00">edit</text>
<text text-anchor="start" x="389.773" y="-300.471" font-family="Times,serif" font-size="14.00">index</text>
<text text-anchor="start" x="389.773" y="-285.471" font-family="Times,serif" font-size="14.00">new</text>
<text text-anchor="start" x="389.773" y="-270.471" font-family="Times,serif" font-size="14.00">show</text>
<text text-anchor="start" x="389.773" y="-255.471" font-family="Times,serif" font-size="14.00">update</text>
<polyline fill="none" stroke="black" points="381.773,-247.671 491.773,-247.671 "/>
<polyline fill="none" stroke="black" points="381.773,-223.671 491.773,-223.671 "/>
<text text-anchor="start" x="389.773" y="-208.471" font-family="Times,serif" font-size="14.00">_layout</text>
</g>
<!-- ApplicationController&#45;&gt;ClientsController -->
<g id="edge10" class="edge"><title>ApplicationController&#45;&gt;ClientsController</title>
<path fill="none" stroke="black" d="M643.778,-653.568C606.23,-588.017 537.228,-467.55 489.262,-383.809"/>
</g>
<!-- JamStatsController -->
<g id="node13" class="node"><title>JamStatsController</title>
<path fill="none" stroke="black" d="M144.955,-905.681C144.955,-905.681 241.955,-905.681 241.955,-905.681 247.955,-905.681 253.955,-911.681 253.955,-917.681 253.955,-917.681 253.955,-1076.68 253.955,-1076.68 253.955,-1082.68 247.955,-1088.68 241.955,-1088.68 241.955,-1088.68 144.955,-1088.68 144.955,-1088.68 138.955,-1088.68 132.955,-1082.68 132.955,-1076.68 132.955,-1076.68 132.955,-917.681 132.955,-917.681 132.955,-911.681 138.955,-905.681 144.955,-905.681"/>
<text text-anchor="middle" x="193.455" y="-1073.48" font-family="Times,serif" font-size="14.00">JamStatsController</text>
<polyline fill="none" stroke="black" points="132.955,-1065.68 253.955,-1065.68 "/>
<text text-anchor="start" x="140.955" y="-1050.48" font-family="Times,serif" font-size="14.00">create</text>
<text text-anchor="start" x="140.955" y="-1035.48" font-family="Times,serif" font-size="14.00">destroy</text>
<text text-anchor="start" x="140.955" y="-1020.48" font-family="Times,serif" font-size="14.00">edit</text>
<text text-anchor="start" x="140.955" y="-1005.48" font-family="Times,serif" font-size="14.00">index</text>
<text text-anchor="start" x="140.955" y="-990.481" font-family="Times,serif" font-size="14.00">new</text>
<text text-anchor="start" x="140.955" y="-975.481" font-family="Times,serif" font-size="14.00">show</text>
<text text-anchor="start" x="140.955" y="-960.481" font-family="Times,serif" font-size="14.00">update</text>
<polyline fill="none" stroke="black" points="132.955,-952.681 253.955,-952.681 "/>
<polyline fill="none" stroke="black" points="132.955,-928.681 253.955,-928.681 "/>
<text text-anchor="start" x="140.955" y="-913.481" font-family="Times,serif" font-size="14.00">_layout</text>
</g>
<!-- ApplicationController&#45;&gt;JamStatsController -->
<g id="edge11" class="edge"><title>ApplicationController&#45;&gt;JamStatsController</title>
<path fill="none" stroke="black" d="M595.784,-746.932C501.497,-805.579 341.264,-905.244 254.177,-959.412"/>
</g>
<!-- DevicesController -->
<g id="node14" class="node"><title>DevicesController</title>
<path fill="none" stroke="black" d="M1222.62,-721.746C1222.62,-721.746 1314.62,-721.746 1314.62,-721.746 1320.62,-721.746 1326.62,-727.746 1326.62,-733.746 1326.62,-733.746 1326.62,-922.746 1326.62,-922.746 1326.62,-928.746 1320.62,-934.746 1314.62,-934.746 1314.62,-934.746 1222.62,-934.746 1222.62,-934.746 1216.62,-934.746 1210.62,-928.746 1210.62,-922.746 1210.62,-922.746 1210.62,-733.746 1210.62,-733.746 1210.62,-727.746 1216.62,-721.746 1222.62,-721.746"/>
<text text-anchor="middle" x="1268.62" y="-919.546" font-family="Times,serif" font-size="14.00">DevicesController</text>
<polyline fill="none" stroke="black" points="1210.62,-911.746 1326.62,-911.746 "/>
<text text-anchor="start" x="1218.62" y="-896.546" font-family="Times,serif" font-size="14.00">batch_edit</text>
<text text-anchor="start" x="1218.62" y="-881.546" font-family="Times,serif" font-size="14.00">batch_update</text>
<text text-anchor="start" x="1218.62" y="-866.546" font-family="Times,serif" font-size="14.00">create</text>
<text text-anchor="start" x="1218.62" y="-851.546" font-family="Times,serif" font-size="14.00">destroy</text>
<text text-anchor="start" x="1218.62" y="-836.546" font-family="Times,serif" font-size="14.00">edit</text>
<text text-anchor="start" x="1218.62" y="-821.546" font-family="Times,serif" font-size="14.00">index</text>
<text text-anchor="start" x="1218.62" y="-806.546" font-family="Times,serif" font-size="14.00">new</text>
<text text-anchor="start" x="1218.62" y="-791.546" font-family="Times,serif" font-size="14.00">show</text>
<text text-anchor="start" x="1218.62" y="-776.546" font-family="Times,serif" font-size="14.00">update</text>
<polyline fill="none" stroke="black" points="1210.62,-768.746 1326.62,-768.746 "/>
<polyline fill="none" stroke="black" points="1210.62,-744.746 1326.62,-744.746 "/>
<text text-anchor="start" x="1218.62" y="-729.546" font-family="Times,serif" font-size="14.00">_layout</text>
</g>
<!-- ApplicationController&#45;&gt;DevicesController -->
<g id="edge12" class="edge"><title>ApplicationController&#45;&gt;DevicesController</title>
<path fill="none" stroke="black" d="M766.351,-720.867C891.573,-747.638 1107.11,-793.716 1210.28,-815.772"/>
</g>
<!-- SummariesController -->
<g id="node15" class="node"><title>SummariesController</title>
<path fill="none" stroke="black" d="M957.679,-1171.4C957.679,-1171.4 1067.68,-1171.4 1067.68,-1171.4 1073.68,-1171.4 1079.68,-1177.4 1079.68,-1183.4 1079.68,-1183.4 1079.68,-1252.4 1079.68,-1252.4 1079.68,-1258.4 1073.68,-1264.4 1067.68,-1264.4 1067.68,-1264.4 957.679,-1264.4 957.679,-1264.4 951.679,-1264.4 945.679,-1258.4 945.679,-1252.4 945.679,-1252.4 945.679,-1183.4 945.679,-1183.4 945.679,-1177.4 951.679,-1171.4 957.679,-1171.4"/>
<text text-anchor="middle" x="1012.68" y="-1249.2" font-family="Times,serif" font-size="14.00">SummariesController</text>
<polyline fill="none" stroke="black" points="945.679,-1241.4 1079.68,-1241.4 "/>
<text text-anchor="start" x="953.679" y="-1226.2" font-family="Times,serif" font-size="14.00">index</text>
<polyline fill="none" stroke="black" points="945.679,-1218.4 1079.68,-1218.4 "/>
<polyline fill="none" stroke="black" points="945.679,-1194.4 1079.68,-1194.4 "/>
<text text-anchor="start" x="953.679" y="-1179.2" font-family="Times,serif" font-size="14.00">_layout</text>
</g>
<!-- ApplicationController&#45;&gt;SummariesController -->
<g id="edge13" class="edge"><title>ApplicationController&#45;&gt;SummariesController</title>
<path fill="none" stroke="black" d="M701.561,-747.234C766.607,-845.637 916.805,-1072.86 981.789,-1171.17"/>
</g>
<!-- AlertsController -->
<g id="node16" class="node"><title>AlertsController</title>
<path fill="none" stroke="black" d="M528.896,-1224.56C528.896,-1224.56 609.896,-1224.56 609.896,-1224.56 615.896,-1224.56 621.896,-1230.56 621.896,-1236.56 621.896,-1236.56 621.896,-1350.56 621.896,-1350.56 621.896,-1356.56 615.896,-1362.56 609.896,-1362.56 609.896,-1362.56 528.896,-1362.56 528.896,-1362.56 522.896,-1362.56 516.896,-1356.56 516.896,-1350.56 516.896,-1350.56 516.896,-1236.56 516.896,-1236.56 516.896,-1230.56 522.896,-1224.56 528.896,-1224.56"/>
<text text-anchor="middle" x="569.396" y="-1347.36" font-family="Times,serif" font-size="14.00">AlertsController</text>
<polyline fill="none" stroke="black" points="516.896,-1339.56 621.896,-1339.56 "/>
<text text-anchor="start" x="524.896" y="-1324.36" font-family="Times,serif" font-size="14.00">create</text>
<text text-anchor="start" x="524.896" y="-1309.36" font-family="Times,serif" font-size="14.00">index</text>
<text text-anchor="start" x="524.896" y="-1294.36" font-family="Times,serif" font-size="14.00">new</text>
<text text-anchor="start" x="524.896" y="-1279.36" font-family="Times,serif" font-size="14.00">show</text>
<polyline fill="none" stroke="black" points="516.896,-1271.56 621.896,-1271.56 "/>
<polyline fill="none" stroke="black" points="516.896,-1247.56 621.896,-1247.56 "/>
<text text-anchor="start" x="524.896" y="-1232.36" font-family="Times,serif" font-size="14.00">_layout</text>
</g>
<!-- ApplicationController&#45;&gt;AlertsController -->
<g id="edge14" class="edge"><title>ApplicationController&#45;&gt;AlertsController</title>
<path fill="none" stroke="black" d="M662.659,-746.941C644.929,-850.86 602.043,-1102.22 581.183,-1224.48"/>
</g>
<!-- SheetCountsController -->
<g id="node17" class="node"><title>SheetCountsController</title>
<path fill="none" stroke="black" d="M908.588,-360.105C908.588,-360.105 1024.59,-360.105 1024.59,-360.105 1030.59,-360.105 1036.59,-366.105 1036.59,-372.105 1036.59,-372.105 1036.59,-531.105 1036.59,-531.105 1036.59,-537.105 1030.59,-543.105 1024.59,-543.105 1024.59,-543.105 908.588,-543.105 908.588,-543.105 902.588,-543.105 896.588,-537.105 896.588,-531.105 896.588,-531.105 896.588,-372.105 896.588,-372.105 896.588,-366.105 902.588,-360.105 908.588,-360.105"/>
<text text-anchor="middle" x="966.588" y="-527.905" font-family="Times,serif" font-size="14.00">SheetCountsController</text>
<polyline fill="none" stroke="black" points="896.588,-520.105 1036.59,-520.105 "/>
<text text-anchor="start" x="904.588" y="-504.905" font-family="Times,serif" font-size="14.00">create</text>
<text text-anchor="start" x="904.588" y="-489.905" font-family="Times,serif" font-size="14.00">destroy</text>
<text text-anchor="start" x="904.588" y="-474.905" font-family="Times,serif" font-size="14.00">edit</text>
<text text-anchor="start" x="904.588" y="-459.905" font-family="Times,serif" font-size="14.00">index</text>
<text text-anchor="start" x="904.588" y="-444.905" font-family="Times,serif" font-size="14.00">new</text>
<text text-anchor="start" x="904.588" y="-429.905" font-family="Times,serif" font-size="14.00">show</text>
<text text-anchor="start" x="904.588" y="-414.905" font-family="Times,serif" font-size="14.00">update</text>
<polyline fill="none" stroke="black" points="896.588,-407.105 1036.59,-407.105 "/>
<polyline fill="none" stroke="black" points="896.588,-383.105 1036.59,-383.105 "/>
<text text-anchor="start" x="904.588" y="-367.905" font-family="Times,serif" font-size="14.00">_layout</text>
</g>
<!-- ApplicationController&#45;&gt;SheetCountsController -->
<g id="edge15" class="edge"><title>ApplicationController&#45;&gt;SheetCountsController</title>
<path fill="none" stroke="black" d="M725.926,-653.892C774.115,-613.387 844.238,-554.445 896.373,-510.624"/>
</g>
<!-- AboutController -->
<g id="node18" class="node"><title>AboutController</title>
<path fill="none" stroke="black" d="M1063.73,-193.324C1063.73,-193.324 1145.73,-193.324 1145.73,-193.324 1151.73,-193.324 1157.73,-199.324 1157.73,-205.324 1157.73,-205.324 1157.73,-289.324 1157.73,-289.324 1157.73,-295.324 1151.73,-301.324 1145.73,-301.324 1145.73,-301.324 1063.73,-301.324 1063.73,-301.324 1057.73,-301.324 1051.73,-295.324 1051.73,-289.324 1051.73,-289.324 1051.73,-205.324 1051.73,-205.324 1051.73,-199.324 1057.73,-193.324 1063.73,-193.324"/>
<text text-anchor="middle" x="1104.73" y="-286.124" font-family="Times,serif" font-size="14.00">AboutController</text>
<polyline fill="none" stroke="black" points="1051.73,-278.324 1157.73,-278.324 "/>
<text text-anchor="start" x="1059.73" y="-263.124" font-family="Times,serif" font-size="14.00">me</text>
<text text-anchor="start" x="1059.73" y="-248.124" font-family="Times,serif" font-size="14.00">search</text>
<polyline fill="none" stroke="black" points="1051.73,-240.324 1157.73,-240.324 "/>
<polyline fill="none" stroke="black" points="1051.73,-216.324 1157.73,-216.324 "/>
<text text-anchor="start" x="1059.73" y="-201.124" font-family="Times,serif" font-size="14.00">_layout</text>
</g>
<!-- ApplicationController&#45;&gt;AboutController -->
<g id="edge16" class="edge"><title>ApplicationController&#45;&gt;AboutController</title>
<path fill="none" stroke="black" d="M691.117,-653.856C724.605,-582.279 797.058,-444.312 893.388,-356.905 939.911,-314.69 1005.69,-283.974 1051.46,-265.984"/>
</g>
</g>
</svg>
