<?xml version="1.0" encoding="UTF-8" standalone="no"?>
<!DOCTYPE svg PUBLIC "-//W3C//DTD SVG 1.1//EN"
 "http://www.w3.org/Graphics/SVG/1.1/DTD/svg11.dtd">
<!-- Generated by graphviz version 2.30.1 (20140110.0959)
 -->
<!-- Title: models_diagram Pages: 1 -->
<svg width="926pt" height="2220pt"
 viewBox="0.00 0.00 926.00 2220.00" xmlns="http://www.w3.org/2000/svg" xmlns:xlink="http://www.w3.org/1999/xlink">
<g id="graph0" class="graph" transform="scale(1 1) rotate(0) translate(4 2216)">
<title>models_diagram</title>
<polygon fill="white" stroke="white" points="-4,5 -4,-2216 923,-2216 923,5 -4,5"/>
<!-- _diagram_info -->
<g id="node1" class="node"><title>_diagram_info</title>
<text text-anchor="start" x="194" y="-2197.6" font-family="Times,serif" font-size="13.00">Models diagram</text>
<text text-anchor="start" x="194" y="-2183.6" font-family="Times,serif" font-size="13.00">Date: Apr 16 2014 &#45; 10:18</text>
<text text-anchor="start" x="194" y="-2169.6" font-family="Times,serif" font-size="13.00">Migration version: 20140403190739</text>
<text text-anchor="start" x="194" y="-2155.6" font-family="Times,serif" font-size="13.00">Generated by RailRoady 1.1.1</text>
<text text-anchor="start" x="194" y="-2141.6" font-family="Times,serif" font-size="13.00">http://railroady.prestonlee.com</text>
</g>
<!-- JamStat -->
<g id="node2" class="node"><title>JamStat</title>
<path fill="none" stroke="black" d="M11.5,-345.5C11.5,-345.5 118.5,-345.5 118.5,-345.5 124.5,-345.5 130.5,-351.5 130.5,-357.5 130.5,-357.5 130.5,-484.5 130.5,-484.5 130.5,-490.5 124.5,-496.5 118.5,-496.5 118.5,-496.5 11.5,-496.5 11.5,-496.5 5.5,-496.5 -0.5,-490.5 -0.5,-484.5 -0.5,-484.5 -0.5,-357.5 -0.5,-357.5 -0.5,-351.5 5.5,-345.5 11.5,-345.5"/>
<text text-anchor="middle" x="65" y="-481.3" font-family="Times,serif" font-size="14.00">JamStat</text>
<polyline fill="none" stroke="black" points="-0.5,-473.5 130.5,-473.5 "/>
<text text-anchor="start" x="7.5" y="-458.3" font-family="Times,serif" font-size="14.00">id :integer</text>
<text text-anchor="start" x="7.5" y="-443.3" font-family="Times,serif" font-size="14.00">jam_code :string</text>
<text text-anchor="start" x="7.5" y="-428.3" font-family="Times,serif" font-size="14.00">paper_type :string</text>
<text text-anchor="start" x="7.5" y="-413.3" font-family="Times,serif" font-size="14.00">paper_code :string</text>
<text text-anchor="start" x="7.5" y="-398.3" font-family="Times,serif" font-size="14.00">jam_type :string</text>
<text text-anchor="start" x="7.5" y="-383.3" font-family="Times,serif" font-size="14.00">alert_id :integer</text>
<text text-anchor="start" x="7.5" y="-368.3" font-family="Times,serif" font-size="14.00">created_at :datetime</text>
<text text-anchor="start" x="7.5" y="-353.3" font-family="Times,serif" font-size="14.00">updated_at :datetime</text>
</g>
<!-- Alert -->
<g id="node3" class="node"><title>Alert</title>
<path fill="none" stroke="black" d="M540.5,-1231.5C540.5,-1231.5 647.5,-1231.5 647.5,-1231.5 653.5,-1231.5 659.5,-1237.5 659.5,-1243.5 659.5,-1243.5 659.5,-1340.5 659.5,-1340.5 659.5,-1346.5 653.5,-1352.5 647.5,-1352.5 647.5,-1352.5 540.5,-1352.5 540.5,-1352.5 534.5,-1352.5 528.5,-1346.5 528.5,-1340.5 528.5,-1340.5 528.5,-1243.5 528.5,-1243.5 528.5,-1237.5 534.5,-1231.5 540.5,-1231.5"/>
<text text-anchor="middle" x="594" y="-1337.3" font-family="Times,serif" font-size="14.00">Alert</text>
<polyline fill="none" stroke="black" points="528.5,-1329.5 659.5,-1329.5 "/>
<text text-anchor="start" x="536.5" y="-1314.3" font-family="Times,serif" font-size="14.00">id :integer</text>
<text text-anchor="start" x="536.5" y="-1299.3" font-family="Times,serif" font-size="14.00">alert_date :datetime</text>
<text text-anchor="start" x="536.5" y="-1284.3" font-family="Times,serif" font-size="14.00">alert_msg :string</text>
<text text-anchor="start" x="536.5" y="-1269.3" font-family="Times,serif" font-size="14.00">created_at :datetime</text>
<text text-anchor="start" x="536.5" y="-1254.3" font-family="Times,serif" font-size="14.00">updated_at :datetime</text>
<text text-anchor="start" x="536.5" y="-1239.3" font-family="Times,serif" font-size="14.00">device_id :integer</text>
</g>
<!-- Alert&#45;&gt;JamStat -->
<g id="edge2" class="edge"><title>Alert&#45;&gt;JamStat</title>
<path fill="none" stroke="#c3351b" d="M603.938,-1223.3C613.301,-1130.66 614.049,-965.884 519,-878 460.942,-824.318 224.489,-894.092 165,-842 69.5213,-758.394 56.5961,-601.658 58.7903,-505.098"/>
<ellipse fill="none" stroke="#c3351b" cx="603.491" cy="-1227.51" rx="4" ry="4"/>
<ellipse fill="#c3351b" stroke="#c3351b" cx="58.9086" cy="-500.811" rx="4" ry="4"/>
</g>
<!-- SheetCount -->
<g id="node7" class="node"><title>SheetCount</title>
<path fill="none" stroke="black" d="M186.5,-360.5C186.5,-360.5 293.5,-360.5 293.5,-360.5 299.5,-360.5 305.5,-366.5 305.5,-372.5 305.5,-372.5 305.5,-469.5 305.5,-469.5 305.5,-475.5 299.5,-481.5 293.5,-481.5 293.5,-481.5 186.5,-481.5 186.5,-481.5 180.5,-481.5 174.5,-475.5 174.5,-469.5 174.5,-469.5 174.5,-372.5 174.5,-372.5 174.5,-366.5 180.5,-360.5 186.5,-360.5"/>
<text text-anchor="middle" x="240" y="-466.3" font-family="Times,serif" font-size="14.00">SheetCount</text>
<polyline fill="none" stroke="black" points="174.5,-458.5 305.5,-458.5 "/>
<text text-anchor="start" x="182.5" y="-443.3" font-family="Times,serif" font-size="14.00">id :integer</text>
<text text-anchor="start" x="182.5" y="-428.3" font-family="Times,serif" font-size="14.00">bw :integer</text>
<text text-anchor="start" x="182.5" y="-413.3" font-family="Times,serif" font-size="14.00">color :integer</text>
<text text-anchor="start" x="182.5" y="-398.3" font-family="Times,serif" font-size="14.00">alert_id :integer</text>
<text text-anchor="start" x="182.5" y="-383.3" font-family="Times,serif" font-size="14.00">created_at :datetime</text>
<text text-anchor="start" x="182.5" y="-368.3" font-family="Times,serif" font-size="14.00">updated_at :datetime</text>
</g>
<!-- Alert&#45;&gt;SheetCount -->
<g id="edge3" class="edge"><title>Alert&#45;&gt;SheetCount</title>
<path fill="none" stroke="#ebb3b0" d="M602.411,-1223.13C609.623,-1132.14 607.475,-971.285 519,-878 471.225,-827.628 417.567,-889.569 367,-842 268.437,-749.281 245.509,-583.008 240.708,-489.904"/>
<ellipse fill="none" stroke="#ebb3b0" cx="602.07" cy="-1227.19" rx="4" ry="4"/>
<ellipse fill="#ebb3b0" stroke="#ebb3b0" cx="240.51" cy="-485.673" rx="4" ry="4"/>
</g>
<!-- MaintCounter -->
<g id="node8" class="node"><title>MaintCounter</title>
<path fill="none" stroke="black" d="M523.5,-0.5C523.5,-0.5 664.5,-0.5 664.5,-0.5 670.5,-0.5 676.5,-6.5 676.5,-12.5 676.5,-12.5 676.5,-829.5 676.5,-829.5 676.5,-835.5 670.5,-841.5 664.5,-841.5 664.5,-841.5 523.5,-841.5 523.5,-841.5 517.5,-841.5 511.5,-835.5 511.5,-829.5 511.5,-829.5 511.5,-12.5 511.5,-12.5 511.5,-6.5 517.5,-0.5 523.5,-0.5"/>
<text text-anchor="middle" x="594" y="-826.3" font-family="Times,serif" font-size="14.00">MaintCounter</text>
<polyline fill="none" stroke="black" points="511.5,-818.5 676.5,-818.5 "/>
<text text-anchor="start" x="519.5" y="-803.3" font-family="Times,serif" font-size="14.00">id :integer</text>
<text text-anchor="start" x="519.5" y="-788.3" font-family="Times,serif" font-size="14.00">maint_total :integer</text>
<text text-anchor="start" x="519.5" y="-773.3" font-family="Times,serif" font-size="14.00">maint_color :integer</text>
<text text-anchor="start" x="519.5" y="-758.3" font-family="Times,serif" font-size="14.00">drum_print_b :integer</text>
<text text-anchor="start" x="519.5" y="-743.3" font-family="Times,serif" font-size="14.00">drum_print_c :integer</text>
<text text-anchor="start" x="519.5" y="-728.3" font-family="Times,serif" font-size="14.00">drum_print_m :integer</text>
<text text-anchor="start" x="519.5" y="-713.3" font-family="Times,serif" font-size="14.00">drum_print_y :integer</text>
<text text-anchor="start" x="519.5" y="-698.3" font-family="Times,serif" font-size="14.00">dev_print_b :integer</text>
<text text-anchor="start" x="519.5" y="-683.3" font-family="Times,serif" font-size="14.00">dev_print_c :integer</text>
<text text-anchor="start" x="519.5" y="-668.3" font-family="Times,serif" font-size="14.00">dev_print_m :integer</text>
<text text-anchor="start" x="519.5" y="-653.3" font-family="Times,serif" font-size="14.00">dev_print_y :integer</text>
<text text-anchor="start" x="519.5" y="-638.3" font-family="Times,serif" font-size="14.00">drum_dist_b :integer</text>
<text text-anchor="start" x="519.5" y="-623.3" font-family="Times,serif" font-size="14.00">drum_dist_c :integer</text>
<text text-anchor="start" x="519.5" y="-608.3" font-family="Times,serif" font-size="14.00">drum_dist_m :integer</text>
<text text-anchor="start" x="519.5" y="-593.3" font-family="Times,serif" font-size="14.00">drum_dist_y :integer</text>
<text text-anchor="start" x="519.5" y="-578.3" font-family="Times,serif" font-size="14.00">dev_dist_b :integer</text>
<text text-anchor="start" x="519.5" y="-563.3" font-family="Times,serif" font-size="14.00">dev_dist_c :integer</text>
<text text-anchor="start" x="519.5" y="-548.3" font-family="Times,serif" font-size="14.00">dev_dist_m :integer</text>
<text text-anchor="start" x="519.5" y="-533.3" font-family="Times,serif" font-size="14.00">dev_dist_y :integer</text>
<text text-anchor="start" x="519.5" y="-518.3" font-family="Times,serif" font-size="14.00">scan :integer</text>
<text text-anchor="start" x="519.5" y="-503.3" font-family="Times,serif" font-size="14.00">spf_count :integer</text>
<text text-anchor="start" x="519.5" y="-488.3" font-family="Times,serif" font-size="14.00">ptu_print :integer</text>
<text text-anchor="start" x="519.5" y="-473.3" font-family="Times,serif" font-size="14.00">ptu_dist :integer</text>
<text text-anchor="start" x="519.5" y="-458.3" font-family="Times,serif" font-size="14.00">stu_print :integer</text>
<text text-anchor="start" x="519.5" y="-443.3" font-family="Times,serif" font-size="14.00">stu_dist :integer</text>
<text text-anchor="start" x="519.5" y="-428.3" font-family="Times,serif" font-size="14.00">stu_days :integer</text>
<text text-anchor="start" x="519.5" y="-413.3" font-family="Times,serif" font-size="14.00">fuser_print :integer</text>
<text text-anchor="start" x="519.5" y="-398.3" font-family="Times,serif" font-size="14.00">fuser_days :integer</text>
<text text-anchor="start" x="519.5" y="-383.3" font-family="Times,serif" font-size="14.00">toner_motor_b :integer</text>
<text text-anchor="start" x="519.5" y="-368.3" font-family="Times,serif" font-size="14.00">toner_motor_c :integer</text>
<text text-anchor="start" x="519.5" y="-353.3" font-family="Times,serif" font-size="14.00">toner_motor_m :integer</text>
<text text-anchor="start" x="519.5" y="-338.3" font-family="Times,serif" font-size="14.00">toner_motor_y :integer</text>
<text text-anchor="start" x="519.5" y="-323.3" font-family="Times,serif" font-size="14.00">toner_rotation_b :integer</text>
<text text-anchor="start" x="519.5" y="-308.3" font-family="Times,serif" font-size="14.00">toner_rotation_c :integer</text>
<text text-anchor="start" x="519.5" y="-293.3" font-family="Times,serif" font-size="14.00">toner_rotation_m :integer</text>
<text text-anchor="start" x="519.5" y="-278.3" font-family="Times,serif" font-size="14.00">toner_rotation_y :integer</text>
<text text-anchor="start" x="519.5" y="-263.3" font-family="Times,serif" font-size="14.00">drum_life_used_b :integer</text>
<text text-anchor="start" x="519.5" y="-248.3" font-family="Times,serif" font-size="14.00">drum_life_used_c :integer</text>
<text text-anchor="start" x="519.5" y="-233.3" font-family="Times,serif" font-size="14.00">drum_life_used_m :integer</text>
<text text-anchor="start" x="519.5" y="-218.3" font-family="Times,serif" font-size="14.00">drum_life_used_y :integer</text>
<text text-anchor="start" x="519.5" y="-203.3" font-family="Times,serif" font-size="14.00">alert_id :integer</text>
<text text-anchor="start" x="519.5" y="-188.3" font-family="Times,serif" font-size="14.00">created_at :datetime</text>
<text text-anchor="start" x="519.5" y="-173.3" font-family="Times,serif" font-size="14.00">updated_at :datetime</text>
<text text-anchor="start" x="519.5" y="-158.3" font-family="Times,serif" font-size="14.00">mft_total :integer</text>
<text text-anchor="start" x="519.5" y="-143.3" font-family="Times,serif" font-size="14.00">tray1 :integer</text>
<text text-anchor="start" x="519.5" y="-128.3" font-family="Times,serif" font-size="14.00">tray2 :integer</text>
<text text-anchor="start" x="519.5" y="-113.3" font-family="Times,serif" font-size="14.00">tray3 :integer</text>
<text text-anchor="start" x="519.5" y="-98.3" font-family="Times,serif" font-size="14.00">tray4 :integer</text>
<text text-anchor="start" x="519.5" y="-83.3" font-family="Times,serif" font-size="14.00">dev_life_used_b :integer</text>
<text text-anchor="start" x="519.5" y="-68.3" font-family="Times,serif" font-size="14.00">dev_life_used_c :integer</text>
<text text-anchor="start" x="519.5" y="-53.3" font-family="Times,serif" font-size="14.00">dev_life_used_m :integer</text>
<text text-anchor="start" x="519.5" y="-38.3" font-family="Times,serif" font-size="14.00">dev_life_used_y :integer</text>
<text text-anchor="start" x="519.5" y="-23.3" font-family="Times,serif" font-size="14.00">ptu_days :integer</text>
<text text-anchor="start" x="519.5" y="-8.3" font-family="Times,serif" font-size="14.00">adu :integer</text>
</g>
<!-- Alert&#45;&gt;MaintCounter -->
<g id="edge4" class="edge"><title>Alert&#45;&gt;MaintCounter</title>
<path fill="none" stroke="#e2be0b" d="M594,-1223.11C594,-1140.73 594,-994.812 594,-849.875"/>
<ellipse fill="none" stroke="#e2be0b" cx="594" cy="-1227.27" rx="4" ry="4"/>
<ellipse fill="#e2be0b" stroke="#e2be0b" cx="594" cy="-845.656" rx="4" ry="4"/>
</g>
<!-- TonerCode -->
<g id="node14" class="node"><title>TonerCode</title>
<path fill="none" stroke="black" d="M827.5,-383C827.5,-383 906.5,-383 906.5,-383 912.5,-383 918.5,-389 918.5,-395 918.5,-395 918.5,-447 918.5,-447 918.5,-453 912.5,-459 906.5,-459 906.5,-459 827.5,-459 827.5,-459 821.5,-459 815.5,-453 815.5,-447 815.5,-447 815.5,-395 815.5,-395 815.5,-389 821.5,-383 827.5,-383"/>
<text text-anchor="middle" x="867" y="-443.8" font-family="Times,serif" font-size="14.00">TonerCode</text>
<polyline fill="none" stroke="black" points="815.5,-436 918.5,-436 "/>
<text text-anchor="start" x="823.5" y="-420.8" font-family="Times,serif" font-size="14.00">id :integer</text>
<text text-anchor="start" x="823.5" y="-405.8" font-family="Times,serif" font-size="14.00">colour :string</text>
<text text-anchor="start" x="823.5" y="-390.8" font-family="Times,serif" font-size="14.00">alert_id :integer</text>
</g>
<!-- Alert&#45;&gt;TonerCode -->
<g id="edge5" class="edge"><title>Alert&#45;&gt;TonerCode</title>
<path fill="none" stroke="#784d97" d="M633.338,-1224.15C681.846,-1138.57 763.121,-984.298 806,-842 845.622,-710.511 859.884,-547.858 864.711,-469.116"/>
<ellipse fill="none" stroke="#784d97" cx="631.304" cy="-1227.73" rx="4.00002" ry="4.00002"/>
<polygon fill="#784d97" stroke="#784d97" points="864.717,-469.011 869.797,-459.293 865.011,-464.02 865.305,-459.028 865.305,-459.028 865.305,-459.028 865.011,-464.02 860.813,-458.763 864.717,-469.011 864.717,-469.011"/>
</g>
<!-- MaintCode -->
<g id="node13" class="node"><title>MaintCode</title>
<path fill="none" stroke="black" d="M706.5,-383C706.5,-383 785.5,-383 785.5,-383 791.5,-383 797.5,-389 797.5,-395 797.5,-395 797.5,-447 797.5,-447 797.5,-453 791.5,-459 785.5,-459 785.5,-459 706.5,-459 706.5,-459 700.5,-459 694.5,-453 694.5,-447 694.5,-447 694.5,-395 694.5,-395 694.5,-389 700.5,-383 706.5,-383"/>
<text text-anchor="middle" x="746" y="-443.8" font-family="Times,serif" font-size="14.00">MaintCode</text>
<polyline fill="none" stroke="black" points="694.5,-436 797.5,-436 "/>
<text text-anchor="start" x="702.5" y="-420.8" font-family="Times,serif" font-size="14.00">id :integer</text>
<text text-anchor="start" x="702.5" y="-405.8" font-family="Times,serif" font-size="14.00">code :string</text>
<text text-anchor="start" x="702.5" y="-390.8" font-family="Times,serif" font-size="14.00">alert_id :integer</text>
</g>
<!-- Alert&#45;&gt;MaintCode -->
<g id="edge6" class="edge"><title>Alert&#45;&gt;MaintCode</title>
<path fill="none" stroke="#307368" d="M608.952,-1223.28C628.032,-1135.57 661.39,-977.83 685,-842 708.427,-707.22 729.958,-547.024 740.021,-469.17"/>
<ellipse fill="none" stroke="#307368" cx="608.059" cy="-1227.38" rx="4.00001" ry="4.00001"/>
<polygon fill="#307368" stroke="#307368" points="740.029,-469.109 745.77,-459.766 740.668,-464.15 741.307,-459.191 741.307,-459.191 741.307,-459.191 740.668,-464.15 736.843,-458.616 740.029,-469.109 740.029,-469.109"/>
</g>
<!-- ServiceCode -->
<g id="node4" class="node"><title>ServiceCode</title>
<path fill="none" stroke="black" d="M388.5,-383C388.5,-383 467.5,-383 467.5,-383 473.5,-383 479.5,-389 479.5,-395 479.5,-395 479.5,-447 479.5,-447 479.5,-453 473.5,-459 467.5,-459 467.5,-459 388.5,-459 388.5,-459 382.5,-459 376.5,-453 376.5,-447 376.5,-447 376.5,-395 376.5,-395 376.5,-389 382.5,-383 388.5,-383"/>
<text text-anchor="middle" x="428" y="-443.8" font-family="Times,serif" font-size="14.00">ServiceCode</text>
<polyline fill="none" stroke="black" points="376.5,-436 479.5,-436 "/>
<text text-anchor="start" x="384.5" y="-420.8" font-family="Times,serif" font-size="14.00">id :integer</text>
<text text-anchor="start" x="384.5" y="-405.8" font-family="Times,serif" font-size="14.00">code :string</text>
<text text-anchor="start" x="384.5" y="-390.8" font-family="Times,serif" font-size="14.00">alert_id :integer</text>
</g>
<!-- Alert&#45;&gt;ServiceCode -->
<g id="edge7" class="edge"><title>Alert&#45;&gt;ServiceCode</title>
<path fill="none" stroke="#4a3a50" d="M587.202,-1223.26C577.636,-1140.34 556.968,-996.361 519,-878 513.595,-861.151 507.361,-858.863 502,-842 460.193,-710.488 440.037,-547.846 432.166,-469.111"/>
<ellipse fill="none" stroke="#4a3a50" cx="587.669" cy="-1227.36" rx="4.00001" ry="4.00001"/>
<polygon fill="#4a3a50" stroke="#4a3a50" points="432.153,-468.977 435.658,-458.586 431.666,-464 431.179,-459.024 431.179,-459.024 431.179,-459.024 431.666,-464 426.701,-459.462 432.153,-468.977 432.153,-468.977"/>
</g>
<!-- PrintVolume -->
<g id="node5" class="node"><title>PrintVolume</title>
<path fill="none" stroke="black" d="M296.5,-1931C296.5,-1931 403.5,-1931 403.5,-1931 409.5,-1931 415.5,-1937 415.5,-1943 415.5,-1943 415.5,-2085 415.5,-2085 415.5,-2091 409.5,-2097 403.5,-2097 403.5,-2097 296.5,-2097 296.5,-2097 290.5,-2097 284.5,-2091 284.5,-2085 284.5,-2085 284.5,-1943 284.5,-1943 284.5,-1937 290.5,-1931 296.5,-1931"/>
<text text-anchor="middle" x="350" y="-2081.8" font-family="Times,serif" font-size="14.00">PrintVolume</text>
<polyline fill="none" stroke="black" points="284.5,-2074 415.5,-2074 "/>
<text text-anchor="start" x="292.5" y="-2058.8" font-family="Times,serif" font-size="14.00">id :integer</text>
<text text-anchor="start" x="292.5" y="-2043.8" font-family="Times,serif" font-size="14.00">model :string</text>
<text text-anchor="start" x="292.5" y="-2028.8" font-family="Times,serif" font-size="14.00">ave_bw :integer</text>
<text text-anchor="start" x="292.5" y="-2013.8" font-family="Times,serif" font-size="14.00">max_bw :integer</text>
<text text-anchor="start" x="292.5" y="-1998.8" font-family="Times,serif" font-size="14.00">ave_c :integer</text>
<text text-anchor="start" x="292.5" y="-1983.8" font-family="Times,serif" font-size="14.00">max_c :integer</text>
<text text-anchor="start" x="292.5" y="-1968.8" font-family="Times,serif" font-size="14.00">created_at :datetime</text>
<text text-anchor="start" x="292.5" y="-1953.8" font-family="Times,serif" font-size="14.00">updated_at :datetime</text>
<text text-anchor="start" x="292.5" y="-1938.8" font-family="Times,serif" font-size="14.00">lifetime :integer</text>
</g>
<!-- Device -->
<g id="node10" class="node"><title>Device</title>
<path fill="none" stroke="black" d="M416.5,-1742.5C416.5,-1742.5 523.5,-1742.5 523.5,-1742.5 529.5,-1742.5 535.5,-1748.5 535.5,-1754.5 535.5,-1754.5 535.5,-1881.5 535.5,-1881.5 535.5,-1887.5 529.5,-1893.5 523.5,-1893.5 523.5,-1893.5 416.5,-1893.5 416.5,-1893.5 410.5,-1893.5 404.5,-1887.5 404.5,-1881.5 404.5,-1881.5 404.5,-1754.5 404.5,-1754.5 404.5,-1748.5 410.5,-1742.5 416.5,-1742.5"/>
<text text-anchor="middle" x="470" y="-1878.3" font-family="Times,serif" font-size="14.00">Device</text>
<polyline fill="none" stroke="black" points="404.5,-1870.5 535.5,-1870.5 "/>
<text text-anchor="start" x="412.5" y="-1855.3" font-family="Times,serif" font-size="14.00">id :integer</text>
<text text-anchor="start" x="412.5" y="-1840.3" font-family="Times,serif" font-size="14.00">name :string</text>
<text text-anchor="start" x="412.5" y="-1825.3" font-family="Times,serif" font-size="14.00">model :string</text>
<text text-anchor="start" x="412.5" y="-1810.3" font-family="Times,serif" font-size="14.00">serial :string</text>
<text text-anchor="start" x="412.5" y="-1795.3" font-family="Times,serif" font-size="14.00">code :string</text>
<text text-anchor="start" x="412.5" y="-1780.3" font-family="Times,serif" font-size="14.00">created_at :datetime</text>
<text text-anchor="start" x="412.5" y="-1765.3" font-family="Times,serif" font-size="14.00">updated_at :datetime</text>
<text text-anchor="start" x="412.5" y="-1750.3" font-family="Times,serif" font-size="14.00">client_id :integer</text>
</g>
<!-- PrintVolume&#45;&gt;Device -->
<g id="edge10" class="edge"><title>PrintVolume&#45;&gt;Device</title>
<path fill="none" stroke="#41888b" d="M405.184,-1923.79C409.56,-1916.71 413.97,-1909.58 418.32,-1902.55"/>
<ellipse fill="none" stroke="#41888b" cx="402.995" cy="-1927.32" rx="4.00002" ry="4.00002"/>
<polygon fill="#41888b" stroke="#41888b" points="418.531,-1902.21 427.618,-1896.07 421.161,-1897.96 423.791,-1893.7 423.791,-1893.7 423.791,-1893.7 421.161,-1897.96 419.964,-1891.34 418.531,-1902.21 418.531,-1902.21"/>
</g>
<!-- Counter -->
<g id="node6" class="node"><title>Counter</title>
<path fill="none" stroke="black" d="M386,-879C386,-879 498,-879 498,-879 504,-879 510,-885 510,-891 510,-891 510,-1693 510,-1693 510,-1699 504,-1705 498,-1705 498,-1705 386,-1705 386,-1705 380,-1705 374,-1699 374,-1693 374,-1693 374,-891 374,-891 374,-885 380,-879 386,-879"/>
<text text-anchor="middle" x="442" y="-1689.8" font-family="Times,serif" font-size="14.00">Counter</text>
<polyline fill="none" stroke="black" points="374,-1682 510,-1682 "/>
<text text-anchor="start" x="382" y="-1666.8" font-family="Times,serif" font-size="14.00">id :integer</text>
<text text-anchor="start" x="382" y="-1651.8" font-family="Times,serif" font-size="14.00">status_date :datetime</text>
<text text-anchor="start" x="382" y="-1636.8" font-family="Times,serif" font-size="14.00">copybw :integer</text>
<text text-anchor="start" x="382" y="-1621.8" font-family="Times,serif" font-size="14.00">copy2c :integer</text>
<text text-anchor="start" x="382" y="-1606.8" font-family="Times,serif" font-size="14.00">copy1c :integer</text>
<text text-anchor="start" x="382" y="-1591.8" font-family="Times,serif" font-size="14.00">copyfc :integer</text>
<text text-anchor="start" x="382" y="-1576.8" font-family="Times,serif" font-size="14.00">printbw :integer</text>
<text text-anchor="start" x="382" y="-1561.8" font-family="Times,serif" font-size="14.00">printfc :integer</text>
<text text-anchor="start" x="382" y="-1546.8" font-family="Times,serif" font-size="14.00">totalprintbw :integer</text>
<text text-anchor="start" x="382" y="-1531.8" font-family="Times,serif" font-size="14.00">totalprint2c :integer</text>
<text text-anchor="start" x="382" y="-1516.8" font-family="Times,serif" font-size="14.00">totalprint1c :integer</text>
<text text-anchor="start" x="382" y="-1501.8" font-family="Times,serif" font-size="14.00">totalprintc :integer</text>
<text text-anchor="start" x="382" y="-1486.8" font-family="Times,serif" font-size="14.00">scanbw :integer</text>
<text text-anchor="start" x="382" y="-1471.8" font-family="Times,serif" font-size="14.00">scan2c :integer</text>
<text text-anchor="start" x="382" y="-1456.8" font-family="Times,serif" font-size="14.00">scan1c :integer</text>
<text text-anchor="start" x="382" y="-1441.8" font-family="Times,serif" font-size="14.00">scanfc :integer</text>
<text text-anchor="start" x="382" y="-1426.8" font-family="Times,serif" font-size="14.00">fileprintbw :integer</text>
<text text-anchor="start" x="382" y="-1411.8" font-family="Times,serif" font-size="14.00">fileprint2c :integer</text>
<text text-anchor="start" x="382" y="-1396.8" font-family="Times,serif" font-size="14.00">fileprint1c :integer</text>
<text text-anchor="start" x="382" y="-1381.8" font-family="Times,serif" font-size="14.00">fileprintfc :integer</text>
<text text-anchor="start" x="382" y="-1366.8" font-family="Times,serif" font-size="14.00">faxin :integer</text>
<text text-anchor="start" x="382" y="-1351.8" font-family="Times,serif" font-size="14.00">faxinline1 :integer</text>
<text text-anchor="start" x="382" y="-1336.8" font-family="Times,serif" font-size="14.00">faxinline2 :integer</text>
<text text-anchor="start" x="382" y="-1321.8" font-family="Times,serif" font-size="14.00">faxinline3 :integer</text>
<text text-anchor="start" x="382" y="-1306.8" font-family="Times,serif" font-size="14.00">otherprintbw :integer</text>
<text text-anchor="start" x="382" y="-1291.8" font-family="Times,serif" font-size="14.00">otherprintc :integer</text>
<text text-anchor="start" x="382" y="-1276.8" font-family="Times,serif" font-size="14.00">faxout :integer</text>
<text text-anchor="start" x="382" y="-1261.8" font-family="Times,serif" font-size="14.00">faxoutline1 :integer</text>
<text text-anchor="start" x="382" y="-1246.8" font-family="Times,serif" font-size="14.00">faxoutline2 :integer</text>
<text text-anchor="start" x="382" y="-1231.8" font-family="Times,serif" font-size="14.00">faxoutline3 :integer</text>
<text text-anchor="start" x="382" y="-1216.8" font-family="Times,serif" font-size="14.00">hddscanbw :integer</text>
<text text-anchor="start" x="382" y="-1201.8" font-family="Times,serif" font-size="14.00">hddscan2c :integer</text>
<text text-anchor="start" x="382" y="-1186.8" font-family="Times,serif" font-size="14.00">hddscan1c :integer</text>
<text text-anchor="start" x="382" y="-1171.8" font-family="Times,serif" font-size="14.00">hddscanfc :integer</text>
<text text-anchor="start" x="382" y="-1156.8" font-family="Times,serif" font-size="14.00">tonerbkin :integer</text>
<text text-anchor="start" x="382" y="-1141.8" font-family="Times,serif" font-size="14.00">tonercin :integer</text>
<text text-anchor="start" x="382" y="-1126.8" font-family="Times,serif" font-size="14.00">tonermin :integer</text>
<text text-anchor="start" x="382" y="-1111.8" font-family="Times,serif" font-size="14.00">toneryin :integer</text>
<text text-anchor="start" x="382" y="-1096.8" font-family="Times,serif" font-size="14.00">tonernnendbk :integer</text>
<text text-anchor="start" x="382" y="-1081.8" font-family="Times,serif" font-size="14.00">tonernnendc :integer</text>
<text text-anchor="start" x="382" y="-1066.8" font-family="Times,serif" font-size="14.00">tonernnendm :integer</text>
<text text-anchor="start" x="382" y="-1051.8" font-family="Times,serif" font-size="14.00">tonernnendy :integer</text>
<text text-anchor="start" x="382" y="-1036.8" font-family="Times,serif" font-size="14.00">tonerendbk :integer</text>
<text text-anchor="start" x="382" y="-1021.8" font-family="Times,serif" font-size="14.00">tonerendc :integer</text>
<text text-anchor="start" x="382" y="-1006.8" font-family="Times,serif" font-size="14.00">tonerendm :integer</text>
<text text-anchor="start" x="382" y="-991.8" font-family="Times,serif" font-size="14.00">tonerendy :integer</text>
<text text-anchor="start" x="382" y="-976.8" font-family="Times,serif" font-size="14.00">tonerleftbk :integer</text>
<text text-anchor="start" x="382" y="-961.8" font-family="Times,serif" font-size="14.00">tonerleftc :integer</text>
<text text-anchor="start" x="382" y="-946.8" font-family="Times,serif" font-size="14.00">tonerleftm :integer</text>
<text text-anchor="start" x="382" y="-931.8" font-family="Times,serif" font-size="14.00">tonerlefty :integer</text>
<text text-anchor="start" x="382" y="-916.8" font-family="Times,serif" font-size="14.00">created_at :datetime</text>
<text text-anchor="start" x="382" y="-901.8" font-family="Times,serif" font-size="14.00">updated_at :datetime</text>
<text text-anchor="start" x="382" y="-886.8" font-family="Times,serif" font-size="14.00">device_id :integer</text>
</g>
<!-- NotifyControl -->
<g id="node9" class="node"><title>NotifyControl</title>
<path fill="none" stroke="black" d="M168,-1096.5C168,-1096.5 344,-1096.5 344,-1096.5 350,-1096.5 356,-1102.5 356,-1108.5 356,-1108.5 356,-1475.5 356,-1475.5 356,-1481.5 350,-1487.5 344,-1487.5 344,-1487.5 168,-1487.5 168,-1487.5 162,-1487.5 156,-1481.5 156,-1475.5 156,-1475.5 156,-1108.5 156,-1108.5 156,-1102.5 162,-1096.5 168,-1096.5"/>
<text text-anchor="middle" x="256" y="-1472.3" font-family="Times,serif" font-size="14.00">NotifyControl</text>
<polyline fill="none" stroke="black" points="156,-1464.5 356,-1464.5 "/>
<text text-anchor="start" x="164" y="-1449.3" font-family="Times,serif" font-size="14.00">id :integer</text>
<text text-anchor="start" x="164" y="-1434.3" font-family="Times,serif" font-size="14.00">tech :string</text>
<text text-anchor="start" x="164" y="-1419.3" font-family="Times,serif" font-size="14.00">jam :integer</text>
<text text-anchor="start" x="164" y="-1404.3" font-family="Times,serif" font-size="14.00">toner_low :integer</text>
<text text-anchor="start" x="164" y="-1389.3" font-family="Times,serif" font-size="14.00">toner_empty :integer</text>
<text text-anchor="start" x="164" y="-1374.3" font-family="Times,serif" font-size="14.00">paper :integer</text>
<text text-anchor="start" x="164" y="-1359.3" font-family="Times,serif" font-size="14.00">service :integer</text>
<text text-anchor="start" x="164" y="-1344.3" font-family="Times,serif" font-size="14.00">pm :integer</text>
<text text-anchor="start" x="164" y="-1329.3" font-family="Times,serif" font-size="14.00">waste_almost_full :integer</text>
<text text-anchor="start" x="164" y="-1314.3" font-family="Times,serif" font-size="14.00">waste_full :integer</text>
<text text-anchor="start" x="164" y="-1299.3" font-family="Times,serif" font-size="14.00">job_log_full :integer</text>
<text text-anchor="start" x="164" y="-1284.3" font-family="Times,serif" font-size="14.00">created_at :datetime</text>
<text text-anchor="start" x="164" y="-1269.3" font-family="Times,serif" font-size="14.00">updated_at :datetime</text>
<text text-anchor="start" x="164" y="-1254.3" font-family="Times,serif" font-size="14.00">jam_sent :datetime</text>
<text text-anchor="start" x="164" y="-1239.3" font-family="Times,serif" font-size="14.00">toner_low_sent :datetime</text>
<text text-anchor="start" x="164" y="-1224.3" font-family="Times,serif" font-size="14.00">toner_empty_sent :datetime</text>
<text text-anchor="start" x="164" y="-1209.3" font-family="Times,serif" font-size="14.00">paper_sent :datetime</text>
<text text-anchor="start" x="164" y="-1194.3" font-family="Times,serif" font-size="14.00">service_sent :datetime</text>
<text text-anchor="start" x="164" y="-1179.3" font-family="Times,serif" font-size="14.00">pm_sent :datetime</text>
<text text-anchor="start" x="164" y="-1164.3" font-family="Times,serif" font-size="14.00">waste_almost_full_sent :datetime</text>
<text text-anchor="start" x="164" y="-1149.3" font-family="Times,serif" font-size="14.00">waste_full_sent :datetime</text>
<text text-anchor="start" x="164" y="-1134.3" font-family="Times,serif" font-size="14.00">job_log_full_sent :datetime</text>
<text text-anchor="start" x="164" y="-1119.3" font-family="Times,serif" font-size="14.00">local_admin :string</text>
<text text-anchor="start" x="164" y="-1104.3" font-family="Times,serif" font-size="14.00">device_id :integer</text>
</g>
<!-- Device&#45;&gt;Alert -->
<g id="edge16" class="edge"><title>Device&#45;&gt;Alert</title>
<path fill="none" stroke="#14943a" d="M508.857,-1734.75C512.615,-1725.18 516.099,-1715.45 519,-1706 555.163,-1588.12 576.285,-1445.66 586.452,-1362.6"/>
<ellipse fill="none" stroke="#14943a" cx="507.282" cy="-1738.67" rx="4.00001" ry="4.00001"/>
<polygon fill="#14943a" stroke="#14943a" points="586.47,-1362.45 592.135,-1353.06 587.068,-1357.48 587.667,-1352.52 587.667,-1352.52 587.667,-1352.52 587.068,-1357.48 583.199,-1351.98 586.47,-1362.45 586.47,-1362.45"/>
</g>
<!-- Device&#45;&gt;NotifyControl -->
<g id="edge17" class="edge"><title>Device&#45;&gt;NotifyControl</title>
<path fill="none" stroke="#75f564" d="M398.795,-1752.32C386.121,-1738.07 374.086,-1722.33 365,-1706 329.235,-1641.73 304.822,-1565.28 288.333,-1495.72"/>
<ellipse fill="none" stroke="#75f564" cx="401.568" cy="-1755.37" rx="4.00002" ry="4.00002"/>
<ellipse fill="#75f564" stroke="#75f564" cx="287.372" cy="-1491.6" rx="4.00001" ry="4.00001"/>
</g>
<!-- Device&#45;&gt;Counter -->
<g id="edge18" class="edge"><title>Device&#45;&gt;Counter</title>
<path fill="none" stroke="#875069" d="M465.579,-1734.27C465.26,-1728.29 464.928,-1722.07 464.584,-1715.65"/>
<ellipse fill="none" stroke="#875069" cx="465.805" cy="-1738.49" rx="4" ry="4"/>
<polygon fill="#875069" stroke="#875069" points="464.569,-1715.36 468.529,-1705.13 464.302,-1710.37 464.035,-1705.37 464.035,-1705.37 464.035,-1705.37 464.302,-1710.37 459.542,-1705.61 464.569,-1715.36 464.569,-1715.36"/>
</g>
<!-- JamCode -->
<g id="node11" class="node"><title>JamCode</title>
<path fill="none" stroke="black" d="M709,-1976C709,-1976 789,-1976 789,-1976 795,-1976 801,-1982 801,-1988 801,-1988 801,-2040 801,-2040 801,-2046 795,-2052 789,-2052 789,-2052 709,-2052 709,-2052 703,-2052 697,-2046 697,-2040 697,-2040 697,-1988 697,-1988 697,-1982 703,-1976 709,-1976"/>
<text text-anchor="middle" x="749" y="-2036.8" font-family="Times,serif" font-size="14.00">JamCode</text>
<polyline fill="none" stroke="black" points="697,-2029 801,-2029 "/>
<text text-anchor="start" x="705" y="-2013.8" font-family="Times,serif" font-size="14.00">id :integer</text>
<text text-anchor="start" x="705" y="-1998.8" font-family="Times,serif" font-size="14.00">red_code :string</text>
<text text-anchor="start" x="705" y="-1983.8" font-family="Times,serif" font-size="14.00">desc :string</text>
</g>
<!-- Client -->
<g id="node12" class="node"><title>Client</title>
<path fill="none" stroke="black" d="M445.5,-1968.5C445.5,-1968.5 552.5,-1968.5 552.5,-1968.5 558.5,-1968.5 564.5,-1974.5 564.5,-1980.5 564.5,-1980.5 564.5,-2047.5 564.5,-2047.5 564.5,-2053.5 558.5,-2059.5 552.5,-2059.5 552.5,-2059.5 445.5,-2059.5 445.5,-2059.5 439.5,-2059.5 433.5,-2053.5 433.5,-2047.5 433.5,-2047.5 433.5,-1980.5 433.5,-1980.5 433.5,-1974.5 439.5,-1968.5 445.5,-1968.5"/>
<text text-anchor="middle" x="499" y="-2044.3" font-family="Times,serif" font-size="14.00">Client</text>
<polyline fill="none" stroke="black" points="433.5,-2036.5 564.5,-2036.5 "/>
<text text-anchor="start" x="441.5" y="-2021.3" font-family="Times,serif" font-size="14.00">id :integer</text>
<text text-anchor="start" x="441.5" y="-2006.3" font-family="Times,serif" font-size="14.00">name :string</text>
<text text-anchor="start" x="441.5" y="-1991.3" font-family="Times,serif" font-size="14.00">created_at :datetime</text>
<text text-anchor="start" x="441.5" y="-1976.3" font-family="Times,serif" font-size="14.00">updated_at :datetime</text>
</g>
<!-- Client&#45;&gt;Device -->
<g id="edge21" class="edge"><title>Client&#45;&gt;Device</title>
<path fill="none" stroke="#aba2d0" d="M491.152,-1960.5C488.537,-1943.01 485.553,-1923.04 482.667,-1903.74"/>
<ellipse fill="none" stroke="#aba2d0" cx="491.755" cy="-1964.54" rx="4.00001" ry="4.00001"/>
<polygon fill="#aba2d0" stroke="#aba2d0" points="482.648,-1903.61 485.62,-1893.06 481.909,-1898.67 481.17,-1893.72 481.17,-1893.72 481.17,-1893.72 481.909,-1898.67 476.719,-1894.39 482.648,-1903.61 482.648,-1903.61"/>
</g>
<!-- ActiveRecord::Base -->
<g id="node15" class="node"><title>ActiveRecord::Base</title>
<ellipse fill="none" stroke="black" cx="499" cy="-2173" rx="81.3646" ry="18"/>
<text text-anchor="middle" x="499" y="-2169.3" font-family="Times,serif" font-size="14.00">ActiveRecord::Base</text>
</g>
<!-- ActiveRecord::Base&#45;&gt;JamStat -->
<g id="edge1" class="edge"><title>ActiveRecord::Base&#45;&gt;JamStat</title>
<path fill="none" stroke="black" d="M468.133,-2156.3C451.116,-2148.34 429.364,-2139.26 409,-2134 335.648,-2115.06 120.745,-2154.25 70,-2098 -38.1419,-1978.13 37.464,-806.434 59.4983,-496.753"/>
</g>
<!-- ActiveRecord::Base&#45;&gt;Alert -->
<g id="edge8" class="edge"><title>ActiveRecord::Base&#45;&gt;Alert</title>
<path fill="none" stroke="black" d="M533.763,-2156.47C556.601,-2144.19 584.639,-2124.67 598,-2098 663.225,-1967.81 619.618,-1516.22 601.136,-1352.7"/>
</g>
<!-- ActiveRecord::Base&#45;&gt;ServiceCode -->
<g id="edge9" class="edge"><title>ActiveRecord::Base&#45;&gt;ServiceCode</title>
<path fill="none" stroke="black" d="M467.215,-2156.26C450.298,-2148.48 428.924,-2139.58 409,-2134 356.437,-2119.27 203.54,-2137.63 166,-2098 103.38,-2031.89 151.227,-1984.96 147,-1894 141.76,-1781.23 76.0831,-965.833 147,-878 194.698,-818.925 258.915,-894.255 314,-842 423.356,-738.263 431.503,-541.142 429.772,-459.185"/>
</g>
<!-- ActiveRecord::Base&#45;&gt;PrintVolume -->
<g id="edge11" class="edge"><title>ActiveRecord::Base&#45;&gt;PrintVolume</title>
<path fill="none" stroke="black" d="M481.408,-2155.26C466.006,-2140.46 443.157,-2118.15 424,-2098 421.207,-2095.06 418.374,-2092.05 415.526,-2088.99"/>
</g>
<!-- ActiveRecord::Base&#45;&gt;Counter -->
<g id="edge12" class="edge"><title>ActiveRecord::Base&#45;&gt;Counter</title>
<path fill="none" stroke="black" d="M465.237,-2156.45C448.528,-2149.09 427.927,-2140.5 409,-2134 350.68,-2113.96 312.525,-2146.94 275,-2098 229.565,-2038.75 260.824,-2003.31 275,-1930 295.371,-1824.66 335.021,-1809.02 365,-1706 368.082,-1695.41 371.069,-1684.63 373.961,-1673.71"/>
</g>
<!-- ActiveRecord::Base&#45;&gt;SheetCount -->
<g id="edge13" class="edge"><title>ActiveRecord::Base&#45;&gt;SheetCount</title>
<path fill="none" stroke="black" d="M467.672,-2156.29C450.702,-2148.43 429.139,-2139.44 409,-2134 348.651,-2117.69 172.404,-2143.93 130,-2098 11.6856,-1969.83 115.223,-1880.38 111,-1706 106.545,-1522.05 51.2853,-1052.04 111,-878 117.578,-858.827 130.21,-860.265 139,-842 196.886,-721.712 223.104,-565.646 233.706,-481.711"/>
</g>
<!-- ActiveRecord::Base&#45;&gt;MaintCounter -->
<g id="edge14" class="edge"><title>ActiveRecord::Base&#45;&gt;MaintCounter</title>
<path fill="none" stroke="black" d="M544.539,-2158C573.408,-2146.64 608.809,-2127.56 628,-2098 728.755,-1942.81 689.149,-1140.36 668,-878 667.033,-866.009 665.926,-853.857 664.697,-841.605"/>
</g>
<!-- ActiveRecord::Base&#45;&gt;NotifyControl -->
<g id="edge15" class="edge"><title>ActiveRecord::Base&#45;&gt;NotifyControl</title>
<path fill="none" stroke="black" d="M466.199,-2156.47C449.371,-2148.94 428.384,-2140.2 409,-2134 339.167,-2111.65 293.842,-2155.22 248,-2098 111.684,-1927.84 144.473,-1666.13 190.891,-1487.64"/>
</g>
<!-- ActiveRecord::Base&#45;&gt;Device -->
<g id="edge19" class="edge"><title>ActiveRecord::Base&#45;&gt;Device</title>
<path fill="none" stroke="black" d="M523.349,-2155.78C540.825,-2142.56 562.988,-2122.17 573,-2098 601.574,-2029.02 600.28,-1999.5 573,-1930 564.836,-1909.2 550.738,-1889.97 535.547,-1873.57"/>
</g>
<!-- ActiveRecord::Base&#45;&gt;JamCode -->
<g id="edge20" class="edge"><title>ActiveRecord::Base&#45;&gt;JamCode</title>
<path fill="none" stroke="black" d="M550.61,-2159.04C589.632,-2147.48 643.114,-2127.74 683,-2098 699.678,-2085.56 714.492,-2067.94 725.838,-2052.12"/>
</g>
<!-- ActiveRecord::Base&#45;&gt;Client -->
<g id="edge22" class="edge"><title>ActiveRecord::Base&#45;&gt;Client</title>
<path fill="none" stroke="black" d="M499,-2154.9C499,-2132.25 499,-2091.47 499,-2059.76"/>
</g>
<!-- ActiveRecord::Base&#45;&gt;MaintCode -->
<g id="edge23" class="edge"><title>ActiveRecord::Base&#45;&gt;MaintCode</title>
<path fill="none" stroke="black" d="M571.904,-2164.96C654.331,-2155.32 780.886,-2134.85 810,-2098 914.804,-1965.33 776.77,-693.935 750.256,-459.173"/>
</g>
<!-- ActiveRecord::Base&#45;&gt;TonerCode -->
<g id="edge24" class="edge"><title>ActiveRecord::Base&#45;&gt;TonerCode</title>
<path fill="none" stroke="black" d="M574.324,-2166.14C664.313,-2157.44 807.016,-2137.68 841,-2098 950.911,-1969.67 882.793,-694.74 869.208,-459.285"/>
</g>
</g>
</svg>
