<?xml version="1.0" encoding="UTF-8" standalone="no"?>
<!DOCTYPE svg PUBLIC "-//W3C//DTD SVG 1.1//EN"
 "http://www.w3.org/Graphics/SVG/1.1/DTD/svg11.dtd">
<!-- Generated by graphviz version 2.30.1 (20140110.0959)
 -->
<!-- Title: models_diagram Pages: 1 -->
<svg width="735pt" height="374pt"
 viewBox="0.00 0.00 735.00 374.00" xmlns="http://www.w3.org/2000/svg" xmlns:xlink="http://www.w3.org/1999/xlink">
<g id="graph0" class="graph" transform="scale(1 1) rotate(0) translate(4 370)">
<title>models_diagram</title>
<polygon fill="white" stroke="white" points="-4,5 -4,-370 732,-370 732,5 -4,5"/>
<!-- _diagram_info -->
<g id="node1" class="node"><title>_diagram_info</title>
<text text-anchor="start" x="55" y="-351.6" font-family="Times,serif" font-size="13.00">Models diagram</text>
<text text-anchor="start" x="55" y="-337.6" font-family="Times,serif" font-size="13.00">Date: Apr 16 2014 &#45; 10:18</text>
<text text-anchor="start" x="55" y="-323.6" font-family="Times,serif" font-size="13.00">Migration version: 20140403190739</text>
<text text-anchor="start" x="55" y="-309.6" font-family="Times,serif" font-size="13.00">Generated by RailRoady 1.1.1</text>
<text text-anchor="start" x="55" y="-295.6" font-family="Times,serif" font-size="13.00">http://railroady.prestonlee.com</text>
</g>
<!-- JamStat -->
<g id="node2" class="node"><title>JamStat</title>
<ellipse fill="none" stroke="black" cx="38" cy="-18" rx="38.4949" ry="18"/>
<text text-anchor="middle" x="38" y="-14.3" font-family="Times,serif" font-size="14.00">JamStat</text>
</g>
<!-- Alert -->
<g id="node3" class="node"><title>Alert</title>
<ellipse fill="none" stroke="black" cx="384" cy="-90" rx="28.3955" ry="18"/>
<text text-anchor="middle" x="384" y="-86.3" font-family="Times,serif" font-size="14.00">Alert</text>
</g>
<!-- Alert&#45;&gt;JamStat -->
<g id="edge2" class="edge"><title>Alert&#45;&gt;JamStat</title>
<path fill="none" stroke="#6f8210" d="M354.467,-75.456C350.985,-74.1564 347.444,-72.9655 344,-72 237.18,-42.0567 205.439,-59.4117 97,-36 90.4095,-34.5771 83.4741,-32.8196 76.7665,-30.9797"/>
<ellipse fill="none" stroke="#6f8210" cx="358.223" cy="-76.9507" rx="4.00001" ry="4.00001"/>
<ellipse fill="#6f8210" stroke="#6f8210" cx="72.881" cy="-29.8833" rx="4.00001" ry="4.00001"/>
</g>
<!-- SheetCount -->
<g id="node7" class="node"><title>SheetCount</title>
<ellipse fill="none" stroke="black" cx="158" cy="-18" rx="51.4931" ry="18"/>
<text text-anchor="middle" x="158" y="-14.3" font-family="Times,serif" font-size="14.00">SheetCount</text>
</g>
<!-- Alert&#45;&gt;SheetCount -->
<g id="edge3" class="edge"><title>Alert&#45;&gt;SheetCount</title>
<path fill="none" stroke="#69bc6e" d="M353.798,-75.6972C350.513,-74.3905 347.201,-73.1315 344,-72 318.562,-63.0095 251.765,-44.421 205.559,-31.8276"/>
<ellipse fill="none" stroke="#69bc6e" cx="357.647" cy="-77.2766" rx="4.00001" ry="4.00001"/>
<ellipse fill="#69bc6e" stroke="#69bc6e" cx="201.619" cy="-30.7554" rx="4.00001" ry="4.00001"/>
</g>
<!-- MaintCounter -->
<g id="node8" class="node"><title>MaintCounter</title>
<ellipse fill="none" stroke="black" cx="427" cy="-18" rx="60.1672" ry="18"/>
<text text-anchor="middle" x="427" y="-14.3" font-family="Times,serif" font-size="14.00">MaintCounter</text>
</g>
<!-- Alert&#45;&gt;MaintCounter -->
<g id="edge4" class="edge"><title>Alert&#45;&gt;MaintCounter</title>
<path fill="none" stroke="#6165b6" d="M398.317,-65.6941C402.769,-58.4465 407.685,-50.443 412.171,-43.1398"/>
<ellipse fill="none" stroke="#6165b6" cx="396.067" cy="-69.3563" rx="4.00002" ry="4.00002"/>
<ellipse fill="#6165b6" stroke="#6165b6" cx="414.387" cy="-39.5322" rx="4.00002" ry="4.00002"/>
</g>
<!-- TonerCode -->
<g id="node14" class="node"><title>TonerCode</title>
<ellipse fill="none" stroke="black" cx="677" cy="-18" rx="50.0684" ry="18"/>
<text text-anchor="middle" x="677" y="-14.3" font-family="Times,serif" font-size="14.00">TonerCode</text>
</g>
<!-- Alert&#45;&gt;TonerCode -->
<g id="edge5" class="edge"><title>Alert&#45;&gt;TonerCode</title>
<path fill="none" stroke="#83fa29" d="M418.586,-81.6329C464.028,-71.8313 546.25,-53.676 616,-36 620.313,-34.9071 624.786,-33.7349 629.262,-32.5358"/>
<ellipse fill="none" stroke="#83fa29" cx="414.451" cy="-82.5225" rx="4.00001" ry="4.00001"/>
<polygon fill="#83fa29" stroke="#83fa29" points="629.353,-32.5112 640.183,-34.2305 634.177,-31.1996 639.002,-29.888 639.002,-29.888 639.002,-29.888 634.177,-31.1996 637.822,-25.5456 629.353,-32.5112 629.353,-32.5112"/>
</g>
<!-- MaintCode -->
<g id="node13" class="node"><title>MaintCode</title>
<ellipse fill="none" stroke="black" cx="557" cy="-18" rx="50.5427" ry="18"/>
<text text-anchor="middle" x="557" y="-14.3" font-family="Times,serif" font-size="14.00">MaintCode</text>
</g>
<!-- Alert&#45;&gt;MaintCode -->
<g id="edge6" class="edge"><title>Alert&#45;&gt;MaintCode</title>
<path fill="none" stroke="#658571" d="M414.841,-76.521C442.834,-65.1945 484.344,-48.3985 515.291,-35.8767"/>
<ellipse fill="none" stroke="#658571" cx="411.04" cy="-78.0591" rx="4.00001" ry="4.00001"/>
<polygon fill="#658571" stroke="#658571" points="515.667,-35.7245 526.624,-36.1451 520.302,-33.8491 524.937,-31.9736 524.937,-31.9736 524.937,-31.9736 520.302,-33.8491 523.249,-27.8022 515.667,-35.7245 515.667,-35.7245"/>
</g>
<!-- ServiceCode -->
<g id="node4" class="node"><title>ServiceCode</title>
<ellipse fill="none" stroke="black" cx="290" cy="-18" rx="55.3436" ry="18"/>
<text text-anchor="middle" x="290" y="-14.3" font-family="Times,serif" font-size="14.00">ServiceCode</text>
</g>
<!-- Alert&#45;&gt;ServiceCode -->
<g id="edge7" class="edge"><title>Alert&#45;&gt;ServiceCode</title>
<path fill="none" stroke="#ce9277" d="M359.74,-70.9337C347.423,-61.7621 332.363,-50.5466 319.393,-40.8884"/>
<ellipse fill="none" stroke="#ce9277" cx="363.111" cy="-73.4445" rx="4.00002" ry="4.00002"/>
<polygon fill="#ce9277" stroke="#ce9277" points="319.242,-40.7762 313.91,-31.1943 315.232,-37.7898 311.222,-34.8035 311.222,-34.8035 311.222,-34.8035 315.232,-37.7898 308.534,-38.4127 319.242,-40.7762 319.242,-40.7762"/>
</g>
<!-- PrintVolume -->
<g id="node5" class="node"><title>PrintVolume</title>
<ellipse fill="none" stroke="black" cx="253" cy="-234" rx="56.3173" ry="18"/>
<text text-anchor="middle" x="253" y="-230.3" font-family="Times,serif" font-size="14.00">PrintVolume</text>
</g>
<!-- Device -->
<g id="node10" class="node"><title>Device</title>
<ellipse fill="none" stroke="black" cx="328" cy="-162" rx="35.6194" ry="18"/>
<text text-anchor="middle" x="328" y="-158.3" font-family="Times,serif" font-size="14.00">Device</text>
</g>
<!-- PrintVolume&#45;&gt;Device -->
<g id="edge10" class="edge"><title>PrintVolume&#45;&gt;Device</title>
<path fill="none" stroke="#0d3bd0" d="M276.512,-211.056C285.364,-202.793 295.431,-193.398 304.3,-185.12"/>
<ellipse fill="none" stroke="#0d3bd0" cx="273.319" cy="-214.035" rx="4.00002" ry="4.00002"/>
<polygon fill="#0d3bd0" stroke="#0d3bd0" points="304.416,-185.012 314.797,-181.479 308.071,-181.601 311.726,-178.189 311.726,-178.189 311.726,-178.189 308.071,-181.601 308.656,-174.899 304.416,-185.012 304.416,-185.012"/>
</g>
<!-- Counter -->
<g id="node6" class="node"><title>Counter</title>
<ellipse fill="none" stroke="black" cx="297" cy="-90" rx="38.4949" ry="18"/>
<text text-anchor="middle" x="297" y="-86.3" font-family="Times,serif" font-size="14.00">Counter</text>
</g>
<!-- NotifyControl -->
<g id="node9" class="node"><title>NotifyControl</title>
<ellipse fill="none" stroke="black" cx="180" cy="-90" rx="60.1672" ry="18"/>
<text text-anchor="middle" x="180" y="-86.3" font-family="Times,serif" font-size="14.00">NotifyControl</text>
</g>
<!-- Device&#45;&gt;Alert -->
<g id="edge16" class="edge"><title>Device&#45;&gt;Alert</title>
<path fill="none" stroke="#74f7f5" d="M345.753,-138.808C352.031,-130.961 359.106,-122.118 365.448,-114.19"/>
<ellipse fill="none" stroke="#74f7f5" cx="343.206" cy="-141.992" rx="4.00002" ry="4.00002"/>
<polygon fill="#74f7f5" stroke="#74f7f5" points="365.481,-114.149 375.242,-109.151 368.604,-110.245 371.728,-106.34 371.728,-106.34 371.728,-106.34 368.604,-110.245 368.214,-103.529 365.481,-114.149 365.481,-114.149"/>
</g>
<!-- Device&#45;&gt;NotifyControl -->
<g id="edge17" class="edge"><title>Device&#45;&gt;NotifyControl</title>
<path fill="none" stroke="#792c82" d="M295.404,-145.583C272.686,-134.838 242.29,-120.462 218.396,-109.16"/>
<ellipse fill="none" stroke="#792c82" cx="299.278" cy="-147.415" rx="4.00002" ry="4.00002"/>
<ellipse fill="#792c82" stroke="#792c82" cx="214.501" cy="-107.318" rx="4.00002" ry="4.00002"/>
</g>
<!-- Device&#45;&gt;Counter -->
<g id="edge18" class="edge"><title>Device&#45;&gt;Counter</title>
<path fill="none" stroke="#dce163" d="M317.245,-136.714C314.471,-130.451 311.473,-123.68 308.655,-117.318"/>
<ellipse fill="none" stroke="#dce163" cx="318.876" cy="-140.398" rx="4.00002" ry="4.00002"/>
<polygon fill="#dce163" stroke="#dce163" points="308.484,-116.933 308.55,-105.967 306.46,-112.361 304.435,-107.789 304.435,-107.789 304.435,-107.789 306.46,-112.361 300.321,-109.611 308.484,-116.933 308.484,-116.933"/>
</g>
<!-- JamCode -->
<g id="node11" class="node"><title>JamCode</title>
<ellipse fill="none" stroke="black" cx="568" cy="-234" rx="44.2946" ry="18"/>
<text text-anchor="middle" x="568" y="-230.3" font-family="Times,serif" font-size="14.00">JamCode</text>
</g>
<!-- Client -->
<g id="node12" class="node"><title>Client</title>
<ellipse fill="none" stroke="black" cx="360" cy="-234" rx="32.2457" ry="18"/>
<text text-anchor="middle" x="360" y="-230.3" font-family="Times,serif" font-size="14.00">Client</text>
</g>
<!-- Client&#45;&gt;Device -->
<g id="edge21" class="edge"><title>Client&#45;&gt;Device</title>
<path fill="none" stroke="#937aea" d="M349.057,-209.062C346.118,-202.632 342.924,-195.647 339.934,-189.106"/>
<ellipse fill="none" stroke="#937aea" cx="350.753" cy="-212.773" rx="4.00002" ry="4.00002"/>
<polygon fill="#937aea" stroke="#937aea" points="339.909,-189.051 339.844,-178.085 337.83,-184.504 335.751,-179.956 335.751,-179.956 335.751,-179.956 337.83,-184.504 331.659,-181.827 339.909,-189.051 339.909,-189.051"/>
</g>
<!-- ActiveRecord::Base -->
<g id="node15" class="node"><title>ActiveRecord::Base</title>
<ellipse fill="none" stroke="black" cx="360" cy="-327" rx="81.3646" ry="18"/>
<text text-anchor="middle" x="360" y="-323.3" font-family="Times,serif" font-size="14.00">ActiveRecord::Base</text>
</g>
<!-- ActiveRecord::Base&#45;&gt;JamStat -->
<g id="edge1" class="edge"><title>ActiveRecord::Base&#45;&gt;JamStat</title>
<path fill="none" stroke="black" d="M327.243,-310.333C310.427,-302.765 289.437,-294.038 270,-288 194.168,-264.443 152.179,-307.099 95,-252 33.5263,-192.762 33.9553,-78.986 36.566,-36.0044"/>
</g>
<!-- ActiveRecord::Base&#45;&gt;Alert -->
<g id="edge8" class="edge"><title>ActiveRecord::Base&#45;&gt;Alert</title>
<path fill="none" stroke="black" d="M378.616,-309.231C392.452,-295.428 410.224,-274.527 418,-252 435.711,-200.692 408.404,-136.859 393.146,-107.355"/>
</g>
<!-- ActiveRecord::Base&#45;&gt;ServiceCode -->
<g id="edge9" class="edge"><title>ActiveRecord::Base&#45;&gt;ServiceCode</title>
<path fill="none" stroke="black" d="M325.668,-310.662C309.003,-303.433 288.605,-294.902 270,-288 220.979,-269.813 195.055,-288.889 158,-252 110.289,-204.503 121.576,-174.487 111,-108 108.487,-92.1987 101.426,-84.8195 111,-72 119.266,-60.9313 195.922,-41.0969 246.203,-29.0828"/>
</g>
<!-- ActiveRecord::Base&#45;&gt;PrintVolume -->
<g id="edge11" class="edge"><title>ActiveRecord::Base&#45;&gt;PrintVolume</title>
<path fill="none" stroke="black" d="M340.375,-309.309C320.827,-292.685 291.03,-267.343 271.783,-250.975"/>
</g>
<!-- ActiveRecord::Base&#45;&gt;Counter -->
<g id="edge12" class="edge"><title>ActiveRecord::Base&#45;&gt;Counter</title>
<path fill="none" stroke="black" d="M323.866,-310.688C273.304,-289.242 187.507,-252.769 187,-252 150.735,-197.044 233.073,-132.659 274.726,-104.896"/>
</g>
<!-- ActiveRecord::Base&#45;&gt;SheetCount -->
<g id="edge13" class="edge"><title>ActiveRecord::Base&#45;&gt;SheetCount</title>
<path fill="none" stroke="black" d="M326.706,-310.505C309.932,-303.069 289.139,-294.408 270,-288 207.852,-267.193 172.378,-299.288 127,-252 71.1193,-193.767 71.4254,-146.275 103,-72 109.537,-56.6234 122.962,-43.544 134.912,-34.2254"/>
</g>
<!-- ActiveRecord::Base&#45;&gt;MaintCounter -->
<g id="edge14" class="edge"><title>ActiveRecord::Base&#45;&gt;MaintCounter</title>
<path fill="none" stroke="black" d="M385.04,-309.58C402.689,-296.395 424.909,-276.133 435,-252 466.463,-176.756 443.44,-75.6093 432.211,-35.9533"/>
</g>
<!-- ActiveRecord::Base&#45;&gt;NotifyControl -->
<g id="edge15" class="edge"><title>ActiveRecord::Base&#45;&gt;NotifyControl</title>
<path fill="none" stroke="black" d="M324.647,-310.714C308.108,-303.655 288.107,-295.25 270,-288 228.083,-271.216 200.654,-289.156 175,-252 144.573,-207.931 162.465,-139.702 173.413,-108.118"/>
</g>
<!-- ActiveRecord::Base&#45;&gt;Device -->
<g id="edge19" class="edge"><title>ActiveRecord::Base&#45;&gt;Device</title>
<path fill="none" stroke="black" d="M374.882,-309.097C392.376,-287.057 417.105,-247.594 401,-216 391.256,-196.884 371.034,-183.049 354.34,-174.318"/>
</g>
<!-- ActiveRecord::Base&#45;&gt;JamCode -->
<g id="edge20" class="edge"><title>ActiveRecord::Base&#45;&gt;JamCode</title>
<path fill="none" stroke="black" d="M395.284,-310.563C435.735,-292.866 501.29,-264.186 538.93,-247.718"/>
</g>
<!-- ActiveRecord::Base&#45;&gt;Client -->
<g id="edge22" class="edge"><title>ActiveRecord::Base&#45;&gt;Client</title>
<path fill="none" stroke="black" d="M360,-308.884C360,-292.614 360,-268.284 360,-252.04"/>
</g>
<!-- ActiveRecord::Base&#45;&gt;MaintCode -->
<g id="edge23" class="edge"><title>ActiveRecord::Base&#45;&gt;MaintCode</title>
<path fill="none" stroke="black" d="M425.981,-316.451C495.301,-304.91 597.499,-283.091 621,-252 672.603,-183.732 601.323,-76.3087 570.237,-35.4849"/>
</g>
<!-- ActiveRecord::Base&#45;&gt;TonerCode -->
<g id="edge24" class="edge"><title>ActiveRecord::Base&#45;&gt;TonerCode</title>
<path fill="none" stroke="black" d="M427.579,-316.997C501.901,-305.659 614.596,-283.742 643,-252 698.612,-189.855 687.183,-78.7962 680.245,-36.2428"/>
</g>
</g>
</svg>
